<?xml version="1.0" encoding="UTF-8"?><svg id="Layer_2" xmlns="http://www.w3.org/2000/svg" viewBox="0 0 63.3 63.3"><defs><style>.cls-1{fill:none;}.cls-2{fill:#4360e0;}</style></defs><g id="Layer_1-2"><path class="cls-2" d="M37.46,54.33H6.95v-12.65h2.75c.25,0,.44.2.44.44v8.42c0,.25.2.44.44.44h23.16c.24,0,.44-.2.44-.44v-21.05c0-.24-.19-.44-.43-.44-9.2,0-26.81,0-26.81,0,0,0,0-1.51,0-3.58.01-2.5.75-7.13,2.59-9.74,3.89-5.5,9.15-7.58,15.74-6.49,5.77.96,10.82,6.41,12.02,12.22h-3.13c-.19,0-.36-.12-.42-.3-1.37-4.09-4.27-7.37-8.52-8.48-7.9-2.07-14.75,4.15-14.99,12.34,0,.25.2.45.45.45h26.24c.29,0,.53.23.53.52v28.32Z"/><path class="cls-2" d="M41.61,54.17v-2.64c0-.21.18-.39.4-.41,3.56-.31,6.42-1.81,8.63-4.46,1.62-1.93,2.41-4.32,2.39-6.75-.02-2.98-1.1-5.5-3.34-7.69-2.11-2.06-4.65-3.28-7.67-3.53-.23-.02-.41-.19-.41-.41v-2.64c4.74.33,9.33,2.43,12.1,6.49,3.42,5,3.57,10.24.22,15.32-2.78,4.21-6.93,6.39-12.32,6.71Z"/><rect class="cls-1" width="63.3" height="63.3"/></g></svg>