<svg xmlns="http://www.w3.org/2000/svg" xmlns:xlink="http://www.w3.org/1999/xlink" width="1920" zoomAndPan="magnify" viewBox="0 0 1440 809.999993" height="1080" preserveAspectRatio="xMidYMid meet" version="1.0"><defs><g/><clipPath id="aea98dd88a"><path d="M 127.746094 121 L 813.996094 121 L 813.996094 687 L 127.746094 687 Z M 127.746094 121 " clip-rule="nonzero"/></clipPath><clipPath id="0030e47439"><path d="M 1104.441406 380.816406 L 1132.15625 380.816406 L 1132.15625 394.15625 L 1104.441406 394.15625 Z M 1104.441406 380.816406 " clip-rule="nonzero"/></clipPath><clipPath id="6fc8a58e3e"><path d="M 1104.441406 337.847656 L 1121.910156 337.847656 L 1121.910156 394.15625 L 1104.441406 394.15625 Z M 1104.441406 337.847656 " clip-rule="nonzero"/></clipPath><clipPath id="8c500110b2"><path d="M 1056.585938 380.816406 L 1084.296875 380.816406 L 1084.296875 394.15625 L 1056.585938 394.15625 Z M 1056.585938 380.816406 " clip-rule="nonzero"/></clipPath><clipPath id="98b6fc9991"><path d="M 1066.832031 337.847656 L 1084.296875 337.847656 L 1084.296875 394.15625 L 1066.832031 394.15625 Z M 1066.832031 337.847656 " clip-rule="nonzero"/></clipPath><clipPath id="9434cc3e6e"><path d="M 1086 209.054688 L 1103 209.054688 L 1103 226 L 1086 226 Z M 1086 209.054688 " clip-rule="nonzero"/></clipPath><clipPath id="489b53a4c5"><path d="M 1141.9375 326.4375 L 1168.210938 326.4375 L 1168.210938 349.667969 L 1141.9375 349.667969 Z M 1141.9375 326.4375 " clip-rule="nonzero"/></clipPath></defs><g clip-path="url(#aea98dd88a)"><path fill="#000000" d="M 496.378906 121.898438 C 491.363281 123.050781 487.6875 125.5 484.859375 129.578125 C 482.628906 132.792969 482.121094 134.539062 482.125 139 C 482.128906 142.125 482.785156 145.742188 483.65625 147.417969 L 485.183594 150.355469 L 445.605469 173.941406 C 394.386719 204.464844 400.234375 201.339844 398.066406 199.378906 C 395.625 197.171875 394.082031 197.335938 391.183594 200.097656 C 389.179688 202.007812 386.183594 202.902344 374.792969 204.976562 C 367.128906 206.371094 357.207031 208.359375 352.746094 209.386719 C 344.292969 211.339844 342.117188 211.238281 342.117188 208.898438 C 342.117188 206.914062 337.578125 201.78125 334.359375 200.121094 C 330.902344 198.335938 323.574219 198.308594 320.203125 200.070312 C 314.316406 203.140625 310.398438 209.53125 310.398438 216.0625 C 310.398438 217.429688 311.382812 220.488281 312.582031 222.859375 L 314.765625 227.167969 L 294.738281 244.378906 C 269.226562 266.300781 270.574219 265.304688 268.304688 263.890625 C 265.949219 262.421875 261.667969 263.488281 260.960938 265.71875 C 260.382812 267.527344 255.378906 268.0625 199.867188 272.210938 C 190.085938 272.941406 179.203125 273.816406 175.675781 274.160156 L 169.269531 274.78125 L 167.296875 270.917969 C 161.964844 260.480469 149.988281 256.457031 139.613281 261.621094 C 132.277344 265.269531 127.78125 272.589844 127.78125 280.878906 C 127.78125 288.851562 132.214844 295.84375 139.710938 299.691406 C 145.246094 302.535156 155.074219 301.867188 159.707031 298.339844 L 163.066406 295.78125 L 166.449219 298.074219 C 173.570312 302.90625 233.167969 340.070312 260.660156 356.816406 L 278.679688 367.796875 L 278.679688 372.226562 C 278.679688 377.769531 281.589844 383.917969 286.074219 387.851562 C 287.953125 389.496094 289.109375 391.195312 288.648438 391.621094 C 288.1875 392.050781 279.195312 399.128906 268.664062 407.351562 L 249.519531 422.304688 L 245.894531 419.035156 C 237.113281 411.109375 224.535156 415.375 222.332031 427.027344 C 220.328125 437.628906 230.867188 446.226562 240.792969 442.085938 L 244.476562 440.546875 L 262.539062 458.570312 C 272.472656 468.480469 280.601562 477.253906 280.601562 478.066406 C 280.601562 480.601562 283.367188 483.632812 286.253906 484.265625 C 289.628906 485.003906 289.871094 486.167969 290.804688 506.128906 C 291.253906 515.738281 291.144531 520.285156 290.464844 520.285156 C 289.914062 520.285156 289.1875 521.367188 288.855469 522.6875 C 288.523438 524.007812 287.820312 525.085938 287.292969 525.085938 C 286.3125 525.085938 256.269531 530.441406 251.648438 531.4375 C 249.46875 531.910156 248.886719 531.492188 247.324219 528.355469 C 243.496094 520.648438 234.292969 519.308594 228.050781 525.546875 C 225.28125 528.3125 224.855469 529.375 224.855469 533.554688 C 224.855469 539.429688 227.964844 543.726562 233.269531 545.1875 C 239.65625 546.953125 245.269531 544.222656 247.910156 538.082031 L 249.589844 534.164062 L 269.53125 530.613281 C 283.589844 528.105469 289.988281 527.332031 291.214844 527.988281 C 292.171875 528.5 293.636719 528.65625 294.46875 528.339844 C 295.300781 528.023438 295.980469 528.175781 295.980469 528.679688 C 295.980469 529.183594 302.144531 542.082031 309.675781 557.339844 C 317.207031 572.597656 323.5 585.347656 323.652344 585.675781 C 323.804688 586 321.769531 586.476562 319.125 586.730469 C 302.027344 588.371094 297.886719 612.480469 313.347656 620.355469 C 322.710938 625.125 334.96875 620.023438 338.289062 609.980469 C 338.890625 608.164062 339.539062 606.679688 339.730469 606.679688 C 339.921875 606.679688 351.890625 611.589844 366.328125 617.589844 C 412.375 636.738281 441.140625 648.605469 457.933594 655.382812 L 474.269531 661.976562 L 474.867188 666.796875 C 476.585938 680.714844 487.96875 689.078125 501.421875 686.3125 C 506.089844 685.351562 507.71875 684.402344 511.882812 680.242188 C 515.972656 676.152344 517.023438 674.378906 518.035156 669.820312 L 519.257812 664.328125 L 525.597656 661.949219 C 529.085938 660.640625 543.832031 655.269531 558.371094 650.011719 C 572.90625 644.75 595.335938 636.523438 608.214844 631.722656 C 621.09375 626.925781 631.953125 622.996094 632.355469 622.996094 C 632.753906 622.996094 634.195312 624.671875 635.550781 626.722656 C 640.449219 634.113281 651.890625 636.769531 659.730469 632.332031 C 668.617188 627.304688 672.1875 616.167969 667.707031 607.476562 L 665.398438 602.992188 L 680.363281 591.167969 C 688.597656 584.667969 698.363281 576.714844 702.074219 573.496094 L 708.816406 567.648438 L 714.820312 568.082031 L 720.820312 568.515625 L 725.136719 564.207031 C 729.09375 560.25 729.453125 559.5 729.453125 555.109375 C 729.453125 547.800781 724.933594 542.40625 716.882812 540.105469 C 715.871094 539.816406 711.953125 529.90625 705.074219 510.246094 C 699.414062 494.0625 693.714844 478.417969 692.414062 475.476562 C 689.601562 469.125 689.636719 469.410156 691.652344 469.410156 C 692.535156 469.410156 693.96875 468.769531 694.835938 467.984375 C 696.246094 466.710938 700.011719 467.757812 730.472656 477.894531 C 749.207031 484.125 767.457031 490.054688 771.035156 491.066406 C 777.296875 492.84375 777.527344 493.019531 777.347656 495.800781 C 776.957031 501.933594 777.609375 504.753906 780.417969 508.984375 C 790.53125 524.234375 813.988281 516.703125 813.988281 498.207031 C 813.988281 487.617188 806.515625 480.285156 794.183594 478.78125 C 792.988281 478.636719 779.9375 466.855469 763.25 450.863281 L 734.386719 423.195312 L 736.722656 418.804688 C 740.691406 411.347656 739.621094 401.25 734.269531 395.667969 C 732.136719 393.445312 732.136719 393.433594 734.027344 391.347656 C 735.070312 390.199219 742.304688 379.753906 750.097656 368.140625 C 757.890625 356.523438 764.367188 346.90625 764.496094 346.765625 C 764.625 346.625 765.980469 347.160156 767.515625 347.957031 C 776.085938 352.421875 787.011719 344.535156 785.816406 334.746094 C 784.945312 327.605469 779.742188 323.273438 771.847656 323.109375 L 767.632812 323.023438 L 763.890625 311.503906 C 756.472656 288.671875 747.714844 260.523438 747.714844 259.507812 C 747.714844 258.9375 748.949219 258.222656 750.460938 257.921875 C 754.148438 257.183594 759.207031 252.800781 760.820312 248.945312 C 763.589844 242.324219 761.140625 233.511719 755.390625 229.425781 C 751.644531 226.757812 744.121094 225.816406 740.046875 227.503906 C 735.355469 229.445312 730.644531 235.390625 729.90625 240.300781 C 729.550781 242.667969 729.542969 245.476562 729.882812 246.550781 C 730.640625 248.933594 731.699219 248.773438 695.914062 251.621094 C 675.769531 253.222656 669.164062 253.457031 667.8125 252.613281 C 664.980469 250.847656 662.339844 251.328125 660.644531 253.910156 C 659.160156 256.167969 658.574219 256.308594 650.585938 256.308594 C 645.917969 256.308594 641.886719 255.960938 641.621094 255.53125 C 641.355469 255.105469 646.644531 245.492188 653.371094 234.175781 C 660.097656 222.855469 667.65625 210.105469 670.167969 205.84375 C 674.304688 198.835938 674.984375 198.128906 677.34375 198.445312 C 680.6875 198.890625 685.660156 195.808594 688.128906 191.761719 C 691.886719 185.609375 689.570312 176.972656 683.257812 173.589844 C 674.234375 168.757812 664.101562 174.78125 664.09375 184.988281 L 664.089844 188.636719 L 643.789062 191.738281 C 632.621094 193.445312 623.109375 194.605469 622.644531 194.320312 C 622.183594 194.035156 621.804688 192.96875 621.804688 191.953125 C 621.804688 190.9375 620.542969 188.695312 619 186.972656 C 616.417969 184.082031 615.734375 183.835938 610.367188 183.835938 C 605.070312 183.835938 604.257812 184.121094 601.398438 186.972656 C 598.652344 189.71875 598.257812 190.742188 598.257812 195.132812 C 598.257812 197.894531 598.59375 201.078125 599.007812 202.207031 C 599.683594 204.050781 598.578125 204.925781 587.957031 210.929688 C 581.460938 214.597656 573.929688 218.925781 571.214844 220.546875 L 566.277344 223.496094 L 543.835938 195.988281 C 531.496094 180.855469 518.625 165.289062 515.234375 161.394531 C 510.023438 155.410156 509.308594 154.179688 510.632812 153.4375 C 513.824219 151.65625 517.042969 144.558594 517.042969 139.308594 C 517.042969 133.675781 515.589844 130.285156 511.601562 126.597656 C 506.894531 122.25 501.753906 120.660156 496.378906 121.898438 Z M 489.472656 154.695312 C 490.148438 155.761719 485.769531 168.855469 473.335938 202.957031 C 463.949219 228.695312 456.03125 250.6875 455.746094 251.832031 C 455.457031 252.976562 454.425781 254.941406 453.453125 256.199219 C 452.480469 257.457031 451.683594 259.726562 451.683594 261.238281 C 451.683594 264.5 450.90625 264.613281 445.917969 262.070312 C 440.484375 259.300781 432.730469 259.496094 426.695312 262.550781 C 424.085938 263.867188 421.789062 264.949219 421.589844 264.949219 C 421.179688 264.949219 413.574219 248.882812 407.503906 235.191406 C 405.277344 230.175781 401.550781 222.039062 399.21875 217.105469 C 396.886719 212.175781 394.976562 207.964844 394.976562 207.75 C 394.976562 207.53125 395.71875 207.355469 396.625 207.355469 C 397.527344 207.355469 399.152344 206.316406 400.226562 205.050781 C 401.675781 203.351562 469.082031 162.496094 484.84375 153.765625 C 487.125 152.5 488.226562 152.722656 489.472656 154.695312 Z M 534.132812 188.519531 C 558.914062 218.535156 563.621094 224.507812 562.984375 225.144531 C 562.730469 225.398438 550.898438 232.246094 536.695312 240.367188 C 512.078125 254.433594 510.765625 255.058594 508.667969 253.6875 C 506.699219 252.398438 506.214844 252.414062 504.066406 253.820312 C 501.550781 255.464844 500.867188 258.972656 502.703125 260.804688 C 503.453125 261.550781 502.839844 263.035156 500.542969 266.058594 C 498.78125 268.378906 496.652344 271.320312 495.816406 272.597656 L 494.292969 274.917969 L 478.996094 267.90625 C 459.3125 258.886719 457.214844 257.539062 457.828125 254.3125 C 458.210938 252.296875 483.355469 182.46875 491.035156 162.09375 L 493.078125 156.671875 L 496.648438 157.144531 C 498.613281 157.40625 501.734375 157.214844 503.585938 156.71875 C 506.726562 155.871094 507.140625 156.035156 509.832031 159.195312 C 511.417969 161.058594 522.351562 174.253906 534.132812 188.519531 Z M 666.832031 193.757812 C 668.234375 195.253906 670.019531 196.691406 670.800781 196.949219 C 671.898438 197.3125 671.003906 199.476562 666.867188 206.464844 C 663.921875 211.441406 656.890625 223.332031 651.242188 232.890625 C 644.054688 245.054688 639.828125 251.191406 637.152344 253.335938 C 633.339844 256.398438 633.320312 256.402344 627.585938 255.273438 C 624.425781 254.65625 621.238281 253.660156 620.5 253.066406 C 619.613281 252.359375 618.273438 245.433594 616.570312 232.792969 C 615.148438 222.230469 613.765625 212.285156 613.503906 210.683594 C 613.074219 208.113281 613.40625 207.589844 616.355469 206.183594 C 618.554688 205.136719 620.246094 203.335938 621.328125 200.886719 L 622.96875 197.171875 L 635.121094 195.402344 C 641.804688 194.425781 650.304688 193.089844 654.003906 192.433594 C 663.675781 190.722656 664.023438 190.757812 666.832031 193.757812 Z M 391.328125 207.746094 C 392.230469 208.984375 397.3125 219.566406 402.625 231.261719 C 407.9375 242.957031 414.011719 255.960938 416.125 260.15625 L 419.964844 267.78125 L 418.046875 270.925781 C 416.992188 272.652344 416.128906 275 416.125 276.136719 C 416.121094 278.058594 415.882812 278.132812 412.757812 277.175781 C 410.578125 276.507812 409.394531 275.550781 409.394531 274.457031 C 409.394531 272.203125 406.664062 269.578125 404.714844 269.953125 C 403.765625 270.136719 400.632812 267.433594 396.703125 263.039062 C 390.257812 255.835938 390.25 255.828125 392.328125 254.238281 C 394.113281 252.871094 394.253906 252.3125 393.3125 250.25 C 392.597656 248.6875 391.101562 247.613281 389.03125 247.171875 C 387.277344 246.796875 381.089844 243.570312 375.273438 240 C 369.457031 236.429688 359.835938 230.605469 353.890625 227.058594 C 343.570312 220.902344 343.078125 220.460938 343.078125 217.410156 L 343.078125 214.210938 L 351.96875 212.210938 C 367.277344 208.769531 383.804688 205.609375 386.808594 205.550781 C 388.769531 205.511719 390.214844 206.214844 391.328125 207.746094 Z M 606.738281 207.128906 C 609.839844 207.660156 610.675781 209.347656 611.601562 216.953125 C 611.953125 219.855469 613.136719 228.625 614.230469 236.4375 C 616.074219 249.632812 616.105469 250.867188 614.671875 253.886719 C 613.265625 256.847656 612.652344 257.195312 607.730469 257.808594 C 604.757812 258.179688 600.730469 258.523438 598.777344 258.574219 C 594.804688 258.679688 594.195312 258.109375 581.917969 242.898438 C 578.21875 238.3125 573.464844 232.476562 571.355469 229.933594 C 568.191406 226.121094 567.769531 225.160156 568.949219 224.449219 C 587.113281 213.539062 601.445312 205.738281 602.582031 206.148438 C 603.375 206.433594 605.246094 206.875 606.738281 207.128906 Z M 354.296875 230.328125 C 385.871094 249.832031 385.367188 249.464844 385.367188 252.765625 C 385.367188 255.265625 386.71875 257.148438 393.179688 263.636719 C 399.679688 270.160156 400.902344 271.863281 400.421875 273.734375 C 400.105469 274.972656 396.285156 279.011719 391.925781 282.707031 C 387.570312 286.402344 378.332031 294.394531 371.394531 300.464844 C 325.460938 340.671875 313.875 350.402344 312.015625 350.347656 C 311.390625 350.328125 309.796875 349.695312 308.476562 348.941406 C 307.152344 348.1875 304.875 347.554688 303.410156 347.535156 C 301.054688 347.503906 300.820312 347.226562 301.355469 345.089844 C 301.6875 343.765625 307.246094 317.957031 313.710938 287.738281 L 325.457031 232.792969 L 329.8125 231.699219 C 335.191406 230.347656 338.519531 228.234375 340.195312 225.105469 C 340.902344 223.789062 341.589844 222.710938 341.726562 222.710938 C 341.863281 222.710938 347.519531 226.136719 354.296875 230.328125 Z M 566.21875 227.4375 C 566.519531 228.265625 581.382812 246.621094 589.328125 255.980469 C 591.5 258.539062 592.675781 260.761719 592.328125 261.664062 C 591.996094 262.527344 592.765625 264.21875 594.171875 265.726562 C 597.328125 269.109375 598.738281 271.945312 598.738281 274.914062 C 598.738281 276.90625 596.765625 278.707031 587.445312 285.238281 C 566.367188 300.003906 566.976562 299.648438 563.816406 298.957031 C 557.894531 297.65625 502.347656 280.214844 499.582031 278.785156 C 497.746094 277.835938 496.894531 276.792969 497.238281 275.90625 C 498.601562 272.351562 505.894531 262.8125 507.964844 261.871094 C 509.238281 261.292969 510.527344 260.03125 510.832031 259.066406 C 511.160156 258.035156 520.910156 251.933594 534.640625 244.160156 C 547.425781 236.925781 559.394531 230.003906 561.234375 228.777344 C 564.910156 226.335938 565.738281 226.113281 566.21875 227.4375 Z M 322.644531 231.789062 C 322.773438 231.890625 319.613281 247.28125 315.625 265.984375 C 311.632812 284.683594 306.121094 310.667969 303.375 323.726562 C 300.628906 336.785156 297.894531 347.65625 297.300781 347.890625 C 296.167969 348.328125 291.835938 337.070312 277.34375 295.996094 C 270.058594 275.34375 269.289062 272.53125 270.316406 270.285156 C 270.953125 268.902344 280.996094 259.628906 292.636719 249.683594 C 304.273438 239.742188 314.375 230.910156 315.078125 230.0625 C 316.25 228.648438 316.609375 228.648438 319.386719 230.058594 C 321.050781 230.90625 322.515625 231.683594 322.644531 231.789062 Z M 730.378906 252.828125 C 728.710938 254.390625 696.203125 275.179688 690.242188 278.492188 L 686.117188 280.785156 L 683.15625 277.425781 C 681.527344 275.578125 677.144531 270.664062 673.410156 266.503906 C 663.957031 255.96875 662.519531 256.652344 700.136719 253.808594 C 711.238281 252.96875 720.5 252.109375 720.722656 251.898438 C 720.941406 251.683594 723.519531 251.511719 726.453125 251.511719 C 731.019531 251.511719 731.582031 251.699219 730.378906 252.828125 Z M 729.769531 257.507812 C 728.703125 258.699219 722.273438 266.128906 715.484375 274.023438 C 708.222656 282.46875 701.746094 289.085938 699.753906 290.101562 L 696.367188 291.824219 L 692.246094 287.785156 C 689.980469 285.566406 688.125 283.511719 688.125 283.226562 C 688.125 282.9375 689.960938 281.726562 692.207031 280.535156 C 694.453125 279.34375 704.078125 273.222656 713.59375 266.941406 C 723.109375 260.65625 731.078125 255.476562 731.300781 255.433594 C 731.527344 255.386719 730.835938 256.320312 729.769531 257.507812 Z M 738.113281 257.277344 C 739.109375 257.808594 740.96875 258.328125 742.242188 258.433594 C 744.378906 258.609375 744.992188 260.019531 750.097656 276.425781 C 753.140625 286.214844 757.78125 301.136719 760.410156 309.582031 C 763.210938 318.589844 764.851562 325.378906 764.378906 326.003906 C 760.699219 330.878906 760.046875 332.453125 760.046875 336.460938 C 760.046875 338.890625 760.699219 341.871094 761.5 343.089844 C 762.863281 345.164062 762.742188 345.59375 759.558594 350.003906 C 757.691406 352.585938 750.578125 363.015625 743.757812 373.179688 C 736.933594 383.34375 731.136719 391.65625 730.878906 391.65625 C 730.621094 391.65625 728.792969 390.792969 726.820312 389.738281 C 722.042969 387.179688 713.382812 387.152344 708.433594 389.671875 L 704.792969 391.527344 L 686.667969 373.40625 C 668.699219 355.441406 668.554688 355.261719 669.75 352.59375 C 670.414062 351.113281 677.304688 338.566406 685.066406 324.71875 C 698.121094 301.417969 699.371094 299.53125 701.796875 299.519531 C 705.464844 299.5 708.039062 295.550781 706.535156 292.253906 C 705.648438 290.308594 705.753906 289.558594 707.121094 288.125 C 708.039062 287.160156 714.566406 279.605469 721.628906 271.339844 C 728.691406 263.074219 734.882812 256.308594 735.390625 256.308594 C 735.894531 256.308594 737.121094 256.742188 738.113281 257.277344 Z M 634.890625 259.460938 C 635.453125 260.019531 627.300781 293.476562 626.425781 294.195312 C 626.265625 294.332031 624.285156 294.675781 622.023438 294.964844 C 618.167969 295.457031 617.824219 295.304688 616.386719 292.457031 C 615.542969 290.789062 613.171875 287.179688 611.121094 284.429688 C 608.75 281.253906 607.386719 278.390625 607.386719 276.585938 C 607.386719 274.371094 606.644531 273.285156 604.011719 271.660156 C 600.304688 269.371094 598.738281 267.101562 598.738281 264.023438 C 598.738281 261.445312 599.3125 261.253906 611.832031 259.683594 C 622.410156 258.351562 633.671875 258.242188 634.890625 259.460938 Z M 664.214844 260.875 C 666.511719 262.398438 683.316406 281.449219 683.316406 282.53125 C 683.316406 283.179688 645.828125 307.527344 645.523438 307.074219 C 642.027344 301.878906 639.03125 299.019531 634.960938 296.976562 C 632.21875 295.601562 629.84375 294.359375 629.683594 294.222656 C 629.527344 294.082031 631.21875 287.117188 633.441406 278.738281 C 638.621094 259.238281 638.65625 259.199219 652.082031 259.199219 C 659.613281 259.203125 662.238281 259.5625 664.214844 260.875 Z M 476.929688 269.785156 L 490.085938 275.714844 L 489.84375 279.308594 C 489.648438 282.257812 488.378906 284.25 482.75 290.445312 L 475.902344 297.992188 L 466.917969 295.730469 C 461.972656 294.484375 457.636719 293.203125 457.277344 292.886719 C 456.917969 292.566406 457.234375 289.984375 457.976562 287.144531 C 459.5625 281.089844 458.582031 274.757812 455.382812 270.355469 L 453.382812 267.601562 L 456.136719 265.304688 C 459.726562 262.316406 460.929688 262.578125 476.929688 269.785156 Z M 260.714844 271.050781 C 260.988281 271.769531 262.441406 272.609375 263.941406 272.925781 C 266.554688 273.46875 267.039062 274.558594 275.667969 299.21875 C 280.617188 313.367188 286.632812 330.101562 289.035156 336.402344 L 293.402344 347.863281 L 291.125 349.363281 C 285.929688 352.785156 283.09375 355.835938 281.09375 360.148438 L 278.972656 364.714844 L 270.898438 359.804688 C 251.742188 348.164062 174.78125 300.140625 169.355469 296.4375 L 165.273438 293.65625 L 167.242188 289.804688 C 168.324219 287.6875 169.292969 284.046875 169.398438 281.71875 C 169.628906 276.636719 165.148438 277.492188 209.476562 274.074219 C 238.957031 271.804688 258.023438 270.207031 259.59375 269.878906 C 259.933594 269.804688 260.4375 270.335938 260.714844 271.050781 Z M 411.378906 279.363281 C 414.707031 280.261719 414.949219 280.589844 415.542969 285.039062 C 415.949219 288.117188 417.328125 291.445312 419.507812 294.609375 L 422.851562 299.460938 L 420.6875 300.8125 C 419.5 301.554688 398.894531 313.90625 374.898438 328.257812 C 350.90625 342.609375 329.078125 355.828125 326.394531 357.632812 C 321.976562 360.605469 321.429688 360.757812 320.632812 359.246094 C 320.148438 358.332031 318.621094 356.363281 317.238281 354.875 C 314.902344 352.363281 314.84375 352.101562 316.441406 351.207031 C 318.105469 350.273438 335.308594 335.554688 371.914062 303.730469 C 381.691406 295.230469 392.5 285.847656 395.9375 282.875 C 402.617188 277.09375 402.792969 277.054688 411.378906 279.363281 Z M 610.347656 288.5625 L 615.78125 296.339844 L 611.449219 299.601562 C 608.132812 302.097656 603.648438 308.027344 603.015625 310.753906 C 602.980469 310.910156 582.539062 304.855469 570.433594 301.101562 C 569.933594 300.945312 576.207031 296.210938 584.371094 290.578125 C 602.988281 277.738281 602.792969 277.75 610.347656 288.5625 Z M 519.828125 288.550781 C 531.246094 292.027344 545.886719 296.480469 552.363281 298.445312 L 564.136719 302.011719 L 555.195312 307.917969 C 548.527344 312.324219 545.703125 313.679688 544.082031 313.253906 C 542.882812 312.941406 540.851562 313.25 539.566406 313.9375 C 537.484375 315.050781 534.21875 314.355469 510.074219 307.679688 C 495.136719 303.550781 481.898438 299.796875 480.644531 299.339844 C 478.382812 298.511719 478.394531 298.476562 482.644531 293.945312 C 484.992188 291.433594 487.691406 288.203125 488.632812 286.761719 C 489.605469 285.28125 491.238281 284.140625 492.402344 284.132812 C 493.53125 284.125 495.105469 283.699219 495.898438 283.1875 C 496.6875 282.675781 497.726562 282.25 498.203125 282.242188 C 498.679688 282.234375 508.410156 285.074219 519.828125 288.550781 Z M 692.238281 290.992188 C 695.300781 294.230469 697.6875 297.171875 697.53125 297.527344 C 697.378906 297.886719 690.34375 310.359375 681.902344 325.246094 L 666.546875 352.3125 L 657.5625 343.429688 C 652.621094 338.539062 647.710938 333.347656 646.652344 331.890625 C 644.785156 329.324219 644.777344 329.097656 646.371094 324.921875 C 647.558594 321.820312 647.867188 319.101562 647.46875 315.25 L 646.914062 309.898438 L 665.835938 297.503906 C 676.242188 290.6875 685.1875 285.113281 685.710938 285.109375 C 686.234375 285.109375 689.171875 287.753906 692.238281 290.992188 Z M 464.117188 297.679688 C 468.117188 298.785156 471.710938 299.996094 472.109375 300.367188 C 472.855469 301.066406 462.582031 312.945312 461.230469 312.945312 C 460.8125 312.945312 458.296875 309.824219 455.640625 306.011719 C 451.148438 299.558594 450.917969 298.960938 452.359375 297.371094 C 454.320312 295.203125 455.273438 295.230469 464.117188 297.679688 Z M 428.089844 302.539062 C 429.4375 303.152344 430.535156 303.910156 430.53125 304.21875 C 430.53125 304.53125 429.257812 313.640625 427.703125 324.464844 C 424.511719 346.710938 422.695312 354.632812 420.132812 357.507812 C 419.160156 358.605469 415.730469 363.171875 412.511719 367.660156 C 409.292969 372.148438 406.082031 376.589844 405.375 377.53125 C 404.140625 379.171875 402.742188 379.117188 373.339844 376.292969 C 356.429688 374.667969 338.609375 372.957031 333.734375 372.496094 C 328.863281 372.027344 324.429688 371.375 323.882812 371.039062 C 323.339844 370.703125 322.894531 368.757812 322.894531 366.71875 L 322.894531 363.011719 L 337.070312 354.296875 C 363.359375 338.132812 424.285156 301.515625 424.96875 301.46875 C 425.339844 301.445312 426.746094 301.925781 428.089844 302.539062 Z M 453.164062 307.769531 C 455.660156 311.261719 457.753906 314.636719 457.816406 315.269531 C 457.972656 316.816406 430.574219 345.582031 428.941406 345.582031 C 427.300781 345.582031 427.183594 347.132812 430.539062 323.984375 C 432.125 313.035156 433.421875 304.007812 433.421875 303.921875 C 433.421875 303.835938 435.628906 303.667969 438.320312 303.550781 C 441.015625 303.433594 443.933594 302.917969 444.808594 302.410156 C 447.65625 300.75 448.570312 301.339844 453.164062 307.769531 Z M 507.429688 309.738281 C 524.082031 314.332031 537.828125 318.171875 537.976562 318.269531 C 538.125 318.363281 533.976562 325.089844 528.757812 333.210938 C 523.539062 341.335938 516.832031 352.070312 513.847656 357.066406 L 508.425781 366.148438 L 502.835938 366.222656 L 497.246094 366.292969 L 483.835938 346.625 C 476.460938 335.808594 468.542969 324.441406 466.242188 321.367188 L 462.058594 315.777344 L 468.644531 308.679688 C 472.265625 304.777344 475.664062 301.542969 476.195312 301.488281 C 476.722656 301.433594 490.777344 305.148438 507.429688 309.738281 Z M 584.9375 308.367188 L 602.378906 313.425781 L 602.757812 319.3125 C 603.039062 323.640625 603.816406 326.222656 605.695312 329.058594 L 608.25 332.914062 L 602.773438 337.992188 C 599.761719 340.78125 590.589844 349.394531 582.398438 357.125 C 573.636719 365.394531 566.398438 371.460938 564.824219 371.851562 C 561.410156 372.695312 559.421875 376.605469 561.066406 379.238281 C 562.894531 382.160156 562.417969 383.785156 559.570312 384.328125 C 558.117188 384.605469 548.875 385.117188 539.03125 385.464844 L 521.136719 386.097656 L 520.449219 382.441406 C 519.703125 378.46875 516.46875 371.519531 515.339844 371.46875 C 514.953125 371.449219 513.65625 370.617188 512.457031 369.617188 L 510.269531 367.796875 L 516.226562 357.890625 C 524.160156 344.695312 537.105469 324.363281 538.800781 322.441406 C 539.582031 321.550781 541.085938 321.078125 542.351562 321.320312 C 544.625 321.753906 546.375 320.347656 546.972656 317.609375 C 547.292969 316.136719 564.421875 303.734375 566.539062 303.441406 C 567.070312 303.367188 575.347656 305.582031 584.9375 308.367188 Z M 479.078125 344.878906 C 487.269531 356.902344 493.972656 366.960938 493.972656 367.226562 C 493.972656 367.496094 492.4375 369.066406 490.5625 370.710938 C 486.574219 374.207031 484.363281 378.078125 484.363281 381.5625 C 484.363281 382.921875 483.757812 384.269531 483.019531 384.550781 C 482.285156 384.835938 472.660156 384.390625 461.636719 383.5625 C 450.613281 382.738281 434.457031 381.578125 425.734375 380.988281 C 417.011719 380.394531 409.507812 379.574219 409.0625 379.164062 C 408.613281 378.753906 411.179688 374.378906 414.761719 369.4375 C 418.34375 364.5 422.167969 359.074219 423.261719 357.378906 C 424.652344 355.230469 426.015625 354.289062 427.777344 354.261719 C 430.898438 354.210938 432.652344 352.238281 432.269531 349.203125 C 432.039062 347.371094 434.832031 343.925781 445.917969 332.359375 L 459.855469 317.816406 L 462.015625 320.421875 C 463.203125 321.851562 470.882812 332.859375 479.078125 344.878906 Z M 656.386719 370.605469 C 651.554688 379.277344 647.273438 386.71875 646.871094 387.136719 C 645.582031 388.472656 632.609375 383.035156 630.910156 380.441406 C 629.769531 378.707031 628.765625 378.195312 627.253906 378.574219 L 625.167969 379.097656 L 625.78125 365.460938 C 626.117188 357.960938 626.445312 349.121094 626.503906 345.820312 C 626.59375 340.792969 626.882812 339.820312 628.292969 339.8125 C 630.722656 339.800781 639.347656 335.617188 640.957031 333.671875 C 642.214844 332.152344 643.292969 332.972656 653.753906 343.421875 L 665.175781 354.828125 Z M 614.6875 337.421875 C 617.175781 338.742188 620.28125 339.820312 621.59375 339.820312 L 623.980469 339.820312 L 623.277344 360.699219 C 622.890625 372.183594 622.507812 381.652344 622.421875 381.746094 C 622.078125 382.121094 581.433594 383.976562 573.550781 383.976562 C 568.902344 383.976562 565.097656 383.597656 565.097656 383.128906 C 565.097656 382.660156 566.226562 381.542969 567.601562 380.640625 C 569.636719 379.308594 570.003906 378.480469 569.558594 376.257812 C 569.046875 373.703125 570.421875 372.179688 589.398438 354.28125 C 600.613281 343.699219 609.875 335.039062 609.980469 335.035156 C 610.085938 335.027344 612.203125 336.101562 614.6875 337.421875 Z M 686.679688 377.28125 L 702.367188 393.144531 L 699.570312 396.890625 C 698.03125 398.953125 696.773438 401.425781 696.773438 402.386719 C 696.773438 403.351562 696.425781 404.136719 695.996094 404.136719 C 695.175781 404.136719 650.394531 388.855469 649.96875 388.429688 C 649.710938 388.171875 663.210938 363.085938 665.765625 359.085938 L 667.253906 356.75 L 669.121094 359.085938 C 670.148438 360.367188 678.050781 368.558594 686.679688 377.28125 Z M 363.261719 377.6875 C 405.835938 381.546875 401.707031 380.921875 401.707031 383.496094 C 401.707031 385.347656 397.96875 391.445312 380.898438 417.4375 C 380.773438 417.628906 370.59375 412.265625 358.269531 405.527344 C 345.949219 398.785156 332.191406 391.324219 327.699219 388.949219 C 323.203125 386.570312 319.382812 384.515625 319.207031 384.378906 C 319.027344 384.242188 319.894531 381.890625 321.128906 379.152344 L 323.375 374.167969 L 330.101562 374.730469 C 333.800781 375.039062 348.722656 376.371094 363.261719 377.6875 Z M 447.183594 384.953125 C 461.890625 386 476.03125 386.859375 478.617188 386.859375 C 483.28125 386.859375 483.324219 386.882812 485.300781 391.347656 C 486.394531 393.816406 486.953125 396.128906 486.546875 396.484375 C 485.859375 397.078125 422.09375 433.214844 417.371094 435.683594 C 415.519531 436.652344 413.273438 435.710938 399.109375 428.023438 C 390.230469 423.207031 382.871094 419.183594 382.753906 419.089844 C 382.640625 418.996094 387.089844 412.027344 392.648438 403.605469 C 401.769531 389.789062 403.003906 388.316406 405.3125 388.507812 C 408.324219 388.75 411.316406 386.375 411.316406 383.738281 C 411.316406 382.078125 411.804688 381.941406 415.882812 382.460938 C 418.394531 382.78125 432.480469 383.902344 447.183594 384.953125 Z M 621.804688 397.757812 C 621.804688 404.804688 621.527344 413.230469 621.1875 416.472656 C 620.589844 422.1875 620.480469 422.375 617.8125 422.375 C 616.296875 422.375 613.035156 423.324219 610.566406 424.480469 L 606.078125 426.589844 L 587.539062 407.445312 C 577.34375 396.914062 568.988281 387.976562 568.972656 387.578125 C 568.957031 387.179688 571.644531 386.800781 574.949219 386.730469 C 578.253906 386.660156 587.660156 386.304688 595.855469 385.941406 C 604.046875 385.578125 613.238281 385.203125 616.277344 385.109375 L 621.804688 384.9375 Z M 639.347656 388.246094 C 642.386719 389.261719 644.871094 390.445312 644.871094 390.878906 C 644.871094 391.316406 642.117188 396.527344 638.75 402.464844 C 635.382812 408.398438 631.484375 415.523438 630.085938 418.296875 C 628.214844 422 626.996094 423.335938 625.492188 423.335938 C 623.527344 423.335938 623.472656 423.039062 624.066406 415.992188 C 624.410156 411.953125 624.6875 403.785156 624.6875 397.84375 C 624.6875 387.664062 624.796875 387.066406 626.53125 387.519531 C 627.546875 387.785156 629.167969 387.535156 630.136719 386.964844 C 632.128906 385.792969 631.871094 385.761719 639.347656 388.246094 Z M 337.15625 397.28125 C 347.546875 403.011719 361.148438 410.433594 367.378906 413.777344 C 373.609375 417.117188 378.53125 420.3125 378.3125 420.882812 C 378.09375 421.449219 374.164062 427.632812 369.582031 434.625 L 361.253906 447.339844 L 358.460938 445.894531 C 356.921875 445.101562 353.15625 444.441406 350.089844 444.429688 L 344.519531 444.40625 L 339.828125 436.511719 C 337.25 432.167969 330.804688 421.054688 325.507812 411.816406 C 320.210938 402.578125 315.035156 393.8125 314.007812 392.34375 C 312.511719 390.203125 312.371094 389.390625 313.308594 388.265625 C 313.953125 387.492188 315.328125 386.859375 316.367188 386.859375 C 317.410156 386.859375 326.761719 391.546875 337.15625 397.28125 Z M 560.292969 387.695312 C 560.292969 388.15625 559.492188 390.425781 558.511719 392.734375 C 557.53125 395.046875 554.238281 403.308594 551.195312 411.097656 C 548.152344 418.882812 545.417969 425.253906 545.121094 425.253906 C 544.828125 425.253906 536.667969 419.964844 526.992188 413.496094 C 512.4375 403.765625 509.6875 401.570312 511.050781 400.777344 C 514.085938 399.011719 518.953125 393.46875 519.546875 391.113281 C 520.066406 389.042969 520.691406 388.761719 525.074219 388.652344 C 532.292969 388.472656 558.730469 387.226562 559.570312 387.027344 C 559.96875 386.933594 560.292969 387.234375 560.292969 387.695312 Z M 584.320312 407.984375 L 604.023438 428.152344 L 601.4375 432.085938 C 600.015625 434.25 598.652344 436.222656 598.40625 436.46875 C 598.160156 436.710938 588.351562 435.269531 576.613281 433.261719 C 556.890625 429.882812 555.207031 429.441406 554.433594 427.410156 C 553.910156 426.03125 552.507812 424.996094 550.679688 424.628906 C 548.707031 424.238281 548.042969 423.703125 548.621094 422.972656 C 549.089844 422.378906 552.410156 414.226562 555.996094 404.855469 C 559.585938 395.484375 562.992188 387.816406 563.570312 387.816406 C 564.144531 387.8125 573.484375 396.890625 584.320312 407.984375 Z M 313.0625 396.21875 C 314.640625 398.726562 320.785156 409.199219 326.714844 419.496094 C 332.644531 429.789062 338.539062 439.835938 339.820312 441.816406 L 342.144531 445.417969 L 337.90625 449.496094 C 333.933594 453.3125 331.5625 458.328125 331.546875 462.933594 C 331.546875 463.855469 331.304688 464.609375 331.011719 464.609375 C 330.722656 464.609375 322.613281 461.328125 312.992188 457.316406 C 303.371094 453.304688 294.910156 449.785156 294.1875 449.492188 C 293.214844 449.097656 293.03125 447.824219 293.488281 444.546875 C 293.824219 442.121094 294.976562 429.78125 296.050781 417.128906 C 297.121094 404.476562 298.132812 393.988281 298.296875 393.820312 C 298.664062 393.457031 306.417969 391.910156 308.613281 391.761719 C 309.523438 391.703125 311.417969 393.597656 313.0625 396.21875 Z M 672.746094 399.171875 L 695.332031 406.621094 L 695.621094 410.007812 L 695.90625 413.394531 L 668.433594 424.726562 C 653.320312 430.960938 640.84375 435.898438 640.710938 435.695312 C 640.578125 435.5 639.402344 433.722656 638.105469 431.757812 C 636.804688 429.789062 634.335938 427.425781 632.617188 426.5 C 630.898438 425.574219 629.496094 424.699219 629.496094 424.550781 C 629.496094 424.261719 641.722656 402.335938 645.5625 395.738281 C 646.867188 393.496094 648.4375 391.671875 649.046875 391.691406 C 649.65625 391.707031 660.320312 395.074219 672.746094 399.171875 Z M 295.019531 396.71875 C 295.019531 400.78125 292.746094 430.835938 291.578125 442.175781 L 290.976562 448.058594 L 270.652344 439.296875 C 244.683594 428.101562 245.097656 429.183594 261.816406 416.226562 C 268.449219 411.085938 277.835938 403.667969 282.671875 399.746094 C 293.097656 391.292969 295.019531 390.824219 295.019531 396.71875 Z M 491.789062 399.835938 C 493.722656 401.1875 493.785156 401.5625 492.640625 404.875 C 491.964844 406.84375 490.199219 413.058594 488.726562 418.679688 C 486.226562 428.191406 485.859375 428.9375 483.402344 429.429688 C 481.78125 429.753906 480.03125 431.175781 478.855469 433.125 C 477.402344 435.535156 473.515625 438.167969 462.632812 444.109375 C 454.761719 448.410156 447.339844 452.21875 446.136719 452.582031 C 443.9375 453.238281 440.984375 451.839844 424.472656 442.316406 L 417.925781 438.539062 L 435.523438 428.621094 C 445.207031 423.164062 461.125 414.140625 470.90625 408.570312 C 480.6875 402.996094 488.914062 398.425781 489.195312 398.40625 C 489.472656 398.390625 490.640625 399.035156 491.789062 399.835938 Z M 525.933594 415.484375 C 536.285156 422.398438 543.953125 428.148438 543.953125 428.996094 C 543.953125 430.585938 529.078125 474.703125 527.738281 477.082031 C 526.992188 478.410156 501.644531 493.078125 487.246094 500.523438 L 481 503.75 L 476.789062 500.019531 C 474.476562 497.96875 471.988281 496.289062 471.261719 496.289062 C 470.539062 496.289062 469.945312 495.78125 469.945312 495.164062 C 469.945312 492.601562 484.640625 441.898438 485.894531 440.132812 C 486.644531 439.078125 487.921875 437.296875 488.726562 436.171875 C 489.902344 434.535156 489.976562 433.648438 489.09375 431.710938 C 488.167969 429.6875 488.558594 427.351562 491.464844 417.40625 C 493.371094 410.867188 494.9375 404.824219 494.9375 403.976562 C 494.9375 402.667969 495.902344 402.511719 501.421875 402.941406 C 507.84375 403.441406 508.101562 403.574219 525.933594 415.484375 Z M 702.34375 425.5 C 703.710938 426.953125 706.265625 428.664062 708.023438 429.296875 C 709.78125 429.933594 711.105469 430.6875 710.964844 430.976562 C 710.824219 431.265625 706.882812 437.871094 702.207031 445.65625 C 695.597656 456.65625 693.253906 459.8125 691.695312 459.8125 C 690.59375 459.8125 688.796875 460.628906 687.703125 461.625 C 685.75 463.414062 685.402344 463.355469 664.09375 457.683594 L 642.46875 451.925781 L 642.394531 445.0625 L 642.316406 438.203125 L 653.925781 433.566406 C 660.3125 431.019531 672.453125 426.039062 680.910156 422.507812 L 696.28125 416.082031 L 698.066406 419.46875 C 699.050781 421.332031 700.972656 424.046875 702.34375 425.5 Z M 398.339844 430.8125 C 412.960938 438.621094 413.222656 438.789062 411.777344 439.3125 C 411.238281 439.503906 401.738281 444.820312 390.664062 451.121094 L 370.527344 462.574219 L 369.433594 458.269531 C 368.832031 455.902344 367.164062 452.738281 365.730469 451.242188 L 363.117188 448.519531 L 371.929688 434.980469 C 380.179688 422.296875 380.871094 421.511719 382.8125 422.53125 C 383.953125 423.132812 390.941406 426.855469 398.339844 430.8125 Z M 778.46875 469.234375 C 786.261719 476.929688 789.097656 480.304688 788.082031 480.667969 C 787.289062 480.953125 784.613281 483.257812 782.136719 485.789062 L 777.632812 490.394531 L 737.542969 477.257812 C 715.128906 469.914062 697.070312 463.488281 696.574219 462.6875 C 695.929688 461.636719 698.09375 457.207031 704.644531 446.171875 L 713.59375 431.09375 L 718.53125 431.054688 C 722.472656 431.023438 724.398438 430.386719 728.085938 427.894531 L 732.699219 424.773438 L 750.058594 441.546875 C 759.605469 450.773438 772.390625 463.230469 778.46875 469.234375 Z M 583.808594 437.015625 L 597.234375 439.226562 L 597.296875 452.320312 L 587.203125 456.1875 C 581.652344 458.3125 568.203125 463.382812 557.316406 467.445312 L 537.519531 474.839844 L 535.070312 472.84375 L 532.617188 470.851562 L 539.007812 451.894531 L 545.394531 432.9375 L 548.441406 433.507812 C 550.113281 433.820312 552.210938 433.671875 553.101562 433.175781 C 554.742188 432.257812 555.507812 432.355469 583.808594 437.015625 Z M 290.460938 451.050781 C 291.089844 451.667969 290.242188 461.289062 288.6875 471.144531 C 288.21875 474.09375 287.949219 474.296875 284.921875 474.027344 C 282.128906 473.773438 279.125 471.226562 264.230469 456.484375 L 246.804688 439.238281 L 248.265625 436.179688 L 249.722656 433.125 L 269.730469 441.734375 C 280.730469 446.46875 290.058594 450.660156 290.460938 451.050781 Z M 483.175781 438.933594 C 482.941406 439.59375 479.367188 452.226562 475.234375 467.011719 C 471.097656 481.792969 467.460938 494.171875 467.148438 494.523438 C 466.835938 494.871094 464.210938 495.300781 461.3125 495.480469 L 456.042969 495.808594 L 452.601562 478.804688 L 449.15625 461.804688 L 451.125 459.835938 C 452.785156 458.179688 452.90625 457.570312 451.910156 455.972656 C 450.492188 453.707031 450.425781 453.09375 451.613281 453.09375 C 452.101562 453.09375 458.480469 449.65625 465.789062 445.460938 C 478.238281 438.308594 484.203125 436.070312 483.175781 438.933594 Z M 429.921875 448.714844 C 438.058594 453.296875 443.035156 456.675781 443.035156 457.613281 C 443.035156 458.441406 443.714844 459.617188 444.550781 460.226562 C 445.558594 460.964844 447.320312 467.457031 449.796875 479.53125 L 453.519531 497.722656 L 450.609375 500.726562 C 449.007812 502.375 447.125 505.390625 446.421875 507.425781 L 445.148438 511.125 L 424.628906 516.140625 C 403.550781 521.289062 399.785156 521.921875 399.785156 520.320312 C 399.785156 518.460938 395.816406 517.152344 393.449219 518.230469 C 390.941406 519.371094 390.03125 518.167969 372.5625 490.59375 L 364.390625 477.699219 L 366.699219 474.675781 C 367.972656 473.011719 369.269531 470.347656 369.589844 468.757812 C 370.109375 466.15625 372.359375 464.601562 391.945312 453.332031 C 403.921875 446.441406 414.414062 440.917969 415.265625 441.0625 C 416.117188 441.207031 422.714844 444.648438 429.921875 448.714844 Z M 307.269531 457.71875 C 314.542969 460.792969 322.945312 464.285156 325.945312 465.480469 C 330.496094 467.296875 331.632812 468.238281 332.8125 471.171875 C 334.566406 475.53125 337.972656 479.269531 342.175781 481.441406 C 346.210938 483.527344 354.347656 483.53125 358.375 481.449219 C 360.035156 480.59375 361.78125 480.132812 362.257812 480.425781 C 362.738281 480.722656 367.316406 487.539062 372.441406 495.582031 C 377.5625 503.628906 383.476562 512.71875 385.585938 515.785156 C 387.691406 518.851562 389.195312 521.582031 388.929688 521.847656 C 388.664062 522.113281 381.804688 523.109375 373.691406 524.0625 L 358.933594 525.792969 L 355.328125 522.558594 C 350.683594 518.398438 347.179688 518.3125 342.683594 522.257812 L 339.339844 525.1875 L 319.824219 508.726562 C 309.089844 499.675781 297.941406 490.226562 295.050781 487.730469 L 289.796875 483.195312 L 290.984375 471.261719 C 292.277344 458.28125 293.148438 452.132812 293.699219 452.132812 C 293.894531 452.132812 300 454.644531 307.269531 457.71875 Z M 600.109375 456.710938 C 600.40625 457.648438 602 459.890625 603.652344 461.699219 C 606.566406 464.882812 606.601562 465.027344 604.832031 466.476562 C 573.75 491.933594 552.867188 509.125 548.40625 512.925781 C 543.734375 516.910156 542.496094 517.542969 541.195312 516.621094 C 540.332031 516.007812 538.007812 514.53125 536.03125 513.335938 C 531.914062 510.855469 531.96875 511.269531 533.316406 492.589844 C 534.019531 482.84375 534.351562 481.445312 536.472656 479.328125 C 538.035156 477.765625 548.609375 473.253906 567.589844 466.058594 C 583.398438 460.058594 597.0625 455.121094 597.953125 455.082031 C 598.839844 455.042969 599.8125 455.777344 600.109375 456.710938 Z M 661.46875 459.859375 C 671.636719 462.523438 681.574219 465.132812 683.558594 465.65625 C 685.539062 466.179688 687.164062 467.105469 687.164062 467.71875 C 687.164062 468.332031 688.671875 472.746094 690.519531 477.523438 C 692.363281 482.300781 698.136719 498.410156 703.34375 513.320312 L 712.8125 540.429688 L 709.386719 542.117188 C 705.078125 544.238281 702.535156 548.578125 702.195312 554.398438 L 701.933594 558.921875 L 690.945312 558.800781 C 665.527344 558.527344 643.734375 557.417969 643.425781 556.378906 C 642.910156 554.65625 632.78125 509.832031 628.128906 488.6875 C 625.753906 477.90625 624.003906 468.78125 624.230469 468.414062 C 624.460938 468.042969 625.847656 467.5 627.3125 467.207031 C 631.203125 466.429688 637.714844 461.378906 639.226562 457.96875 C 639.945312 456.34375 641.085938 455.011719 641.757812 455.011719 C 642.429688 455.011719 651.300781 457.191406 661.46875 459.859375 Z M 613.253906 467.632812 C 615.046875 468.238281 616.644531 468.832031 616.800781 468.953125 C 617.042969 469.140625 590.425781 547.859375 588.648438 552.203125 C 588.269531 553.125 587.605469 553.882812 587.171875 553.882812 C 586.332031 553.882812 560.777344 542.570312 551.160156 537.941406 L 545.394531 535.164062 L 545.703125 531.0625 C 545.871094 528.808594 545.488281 525.386719 544.855469 523.464844 C 543.78125 520.214844 543.863281 519.847656 546.027344 518.273438 C 548.578125 516.417969 597.550781 476.195312 604.503906 470.246094 C 609.429688 466.027344 608.933594 466.175781 613.253906 467.632812 Z M 622.625 477.089844 C 623.695312 481.578125 627.40625 497.992188 630.871094 513.566406 C 634.332031 529.140625 638 545.339844 639.019531 549.558594 C 640.039062 553.78125 640.710938 557.398438 640.511719 557.597656 C 640.3125 557.796875 630.046875 557.644531 617.699219 557.261719 C 598.996094 556.675781 594.894531 556.292969 593.128906 554.960938 L 591.007812 553.363281 L 604.988281 512.109375 C 621.515625 463.332031 619.84375 468.089844 620.304688 468.554688 C 620.511719 468.761719 621.554688 472.601562 622.625 477.089844 Z M 530.777344 486.242188 C 530.667969 489.390625 530.304688 496.140625 529.972656 501.238281 L 529.371094 510.503906 L 525.882812 511.160156 C 519.648438 512.324219 514.476562 516.277344 510.699219 522.761719 C 509.667969 524.527344 509.390625 524.519531 499.164062 522.421875 C 493.402344 521.238281 487.773438 520.273438 486.660156 520.277344 C 484.890625 520.285156 484.5625 519.582031 484.105469 514.765625 C 483.816406 511.730469 483.3125 508.582031 482.984375 507.773438 C 482.535156 506.652344 486.359375 504.074219 498.996094 496.976562 C 508.128906 491.847656 518.410156 485.933594 521.847656 483.832031 C 530.136719 478.761719 531.03125 479.003906 530.777344 486.242188 Z M 315.753906 508.21875 C 334.457031 524.292969 338.792969 528.484375 339.824219 531.496094 C 341.28125 535.746094 344.273438 538.523438 347.398438 538.523438 C 349.421875 538.523438 354.707031 543.960938 372.667969 564.523438 L 375.679688 567.96875 L 358.71875 581.324219 C 349.386719 588.667969 341.007812 595.21875 340.089844 595.878906 C 338.652344 596.914062 338.160156 596.648438 336.472656 593.921875 C 335.398438 592.1875 332.878906 589.84375 330.867188 588.714844 C 327.507812 586.828125 326.058594 584.339844 312.582031 557.332031 C 300.730469 533.582031 298.050781 527.472656 298.496094 525.242188 C 298.933594 523.0625 298.542969 522.09375 296.621094 520.585938 C 294.355469 518.804688 294.128906 517.828125 293.164062 505.851562 C 292.042969 491.871094 291.925781 488.609375 292.539062 488.609375 C 292.761719 488.609375 303.207031 497.433594 315.753906 508.21875 Z M 447.542969 525.566406 C 448.386719 527.097656 447.640625 530.988281 443.871094 544.765625 C 441.269531 554.265625 438.136719 566.363281 436.90625 571.640625 L 434.671875 581.242188 L 423.382812 563.960938 C 417.175781 554.460938 409.109375 542.148438 405.460938 536.605469 C 399.613281 527.71875 399.007812 526.390625 400.371094 525.382812 C 401.21875 524.757812 410.191406 522.265625 420.3125 519.851562 C 430.429688 517.4375 440.007812 515.128906 441.59375 514.714844 C 444.433594 513.980469 444.488281 514.039062 445.480469 518.808594 C 446.035156 521.46875 446.964844 524.511719 447.542969 525.566406 Z M 499.890625 525.179688 C 504.996094 526.183594 509.429688 527.007812 509.742188 527.007812 C 510.054688 527.007812 510.3125 528.753906 510.3125 530.894531 C 510.3125 535.730469 512.113281 539.296875 516.492188 543.132812 C 521.125 547.199219 528.039062 548.238281 534.34375 545.8125 C 535.425781 545.398438 538.613281 550.453125 547.113281 566.066406 C 553.34375 577.511719 558.203125 587.488281 557.917969 588.234375 C 557.472656 589.386719 551.742188 589.488281 519.675781 588.910156 C 498.933594 588.535156 481.667969 587.953125 481.308594 587.613281 C 480.949219 587.277344 478.320312 575.121094 475.472656 560.601562 L 470.292969 534.203125 L 473.339844 532.578125 C 476.53125 530.871094 482.441406 524.730469 482.441406 523.121094 C 482.441406 522.054688 486.277344 522.507812 499.890625 525.179688 Z M 391.480469 526.527344 C 391.785156 527.316406 393.035156 527.964844 394.261719 527.964844 C 396.039062 527.964844 397.925781 530.148438 403.589844 538.765625 C 407.496094 544.703125 415.582031 557.015625 421.558594 566.121094 C 427.535156 575.230469 431.894531 582.679688 431.242188 582.675781 C 430.589844 582.675781 428.542969 581.734375 426.695312 580.589844 C 424.84375 579.441406 417.902344 575.449219 411.269531 571.714844 C 400.039062 565.390625 399.25 564.757812 399.792969 562.523438 C 401.394531 555.921875 397.019531 548.304688 390.371094 546.113281 C 383.082031 543.707031 374.828125 549.332031 373.875 557.351562 L 373.351562 561.738281 L 364.222656 551.386719 C 359.199219 545.695312 354.316406 540.316406 353.371094 539.433594 C 351.730469 537.90625 351.757812 537.765625 354.066406 536.253906 C 355.394531 535.386719 356.84375 533.273438 357.28125 531.5625 L 358.085938 528.445312 L 371.003906 526.886719 C 388.210938 524.808594 390.800781 524.761719 391.480469 526.527344 Z M 457.695312 533.207031 C 459.640625 534.019531 462.722656 534.683594 464.542969 534.683594 C 467.691406 534.683594 467.886719 534.886719 468.53125 538.765625 C 468.902344 541.007812 471.101562 552.492188 473.417969 564.285156 C 475.738281 576.074219 477.636719 586.289062 477.636719 586.984375 C 477.636719 588 474.121094 588.140625 459.613281 587.71875 C 440.15625 587.148438 437.359375 586.421875 437.296875 581.90625 C 437.265625 579.585938 440.804688 564.925781 446.5 543.804688 C 450.996094 527.113281 450.445312 528.375 452.460938 530.199219 C 453.394531 531.042969 455.75 532.398438 457.695312 533.207031 Z M 550.351562 540.550781 C 553.96875 542.195312 563.199219 546.328125 570.867188 549.738281 C 578.53125 553.152344 585.1875 556.320312 585.664062 556.785156 C 586.8125 557.902344 585.09375 560.40625 573.050781 575.136719 C 567.503906 581.917969 562.597656 587.238281 562.144531 586.957031 C 561.320312 586.449219 556.527344 577.988281 544.585938 555.949219 L 538.164062 544.09375 L 540.816406 540.898438 C 542.277344 539.140625 543.539062 537.671875 543.621094 537.632812 C 543.707031 537.59375 546.734375 538.910156 550.351562 540.550781 Z M 633.960938 560.261719 L 641.792969 560.871094 L 642.941406 566.738281 C 643.570312 569.964844 645.320312 577.761719 646.828125 584.0625 C 648.332031 590.367188 649.378906 595.828125 649.152344 596.195312 C 648.925781 596.5625 647.179688 597.152344 645.277344 597.507812 C 641.71875 598.175781 633.351562 605.414062 633.324219 607.855469 C 633.285156 611.183594 631.921875 611.472656 625.125 609.605469 C 575.347656 595.921875 564.136719 592.558594 564.136719 591.3125 C 564.136719 590.828125 568.648438 584.839844 574.164062 578.007812 C 579.679688 571.175781 584.730469 564.71875 585.390625 563.664062 C 586.332031 562.160156 587.285156 561.851562 589.765625 562.253906 C 592.132812 562.640625 593.085938 562.375 593.535156 561.207031 C 594.058594 559.847656 596.238281 559.644531 610.132812 559.648438 C 618.933594 559.652344 629.652344 559.929688 633.960938 560.261719 Z M 705.234375 563.757812 L 707.480469 565.863281 L 705.125 567.792969 C 695.640625 575.570312 665.292969 599.773438 664.292969 600.359375 C 663.609375 600.757812 662.359375 600.507812 661.511719 599.800781 C 660.667969 599.097656 658.230469 597.871094 656.097656 597.078125 L 652.222656 595.636719 L 648.574219 579.320312 C 646.570312 570.34375 644.914062 562.394531 644.898438 561.652344 C 644.875 560.507812 649.269531 560.402344 673.933594 560.976562 C 702.050781 561.628906 703.066406 561.722656 705.234375 563.757812 Z M 410.570312 574.683594 C 417.589844 578.734375 425.117188 583.0625 427.296875 584.300781 C 430.109375 585.898438 431.429688 587.367188 431.824219 589.339844 C 432.144531 590.941406 433.183594 592.378906 434.265625 592.722656 C 435.398438 593.082031 440.070312 599.898438 445.996094 609.839844 C 451.40625 618.925781 460.261719 633.699219 465.664062 642.675781 C 471.070312 651.652344 475.386719 659.113281 475.253906 659.261719 C 475.007812 659.539062 410.113281 632.964844 365.183594 614.1875 C 360.160156 612.089844 352.269531 608.839844 347.640625 606.964844 C 336.296875 602.363281 336.386719 601.761719 349.960938 591.320312 C 355.796875 586.832031 364.441406 580.167969 369.175781 576.503906 L 377.78125 569.851562 L 380.519531 571.464844 C 382.027344 572.355469 384.871094 573.082031 386.84375 573.082031 C 390.378906 573.082031 396.898438 569.917969 396.898438 568.203125 C 396.898438 567.71875 397.105469 567.320312 397.355469 567.320312 C 397.605469 567.320312 403.550781 570.632812 410.570312 574.683594 Z M 478.460938 590.890625 C 478.65625 591.070312 479.816406 596.53125 481.042969 603.027344 C 482.273438 609.523438 484.601562 621.0625 486.222656 628.667969 C 487.84375 636.273438 489.167969 642.820312 489.167969 643.214844 C 489.167969 643.609375 487.328125 645.023438 485.085938 646.355469 C 482.839844 647.691406 480.132812 650.105469 479.078125 651.726562 C 478.019531 653.34375 476.875 654.671875 476.535156 654.671875 C 475.683594 654.675781 472.589844 649.6875 454.664062 619.425781 C 446.152344 605.050781 439.191406 592.835938 439.191406 592.277344 C 439.191406 591.714844 440.042969 590.941406 441.085938 590.558594 C 442.890625 589.890625 477.730469 590.203125 478.460938 590.890625 Z M 546.597656 591.902344 C 552.589844 592.214844 557.410156 592.886719 557.410156 593.40625 C 557.410156 594.390625 543.128906 611.339844 523.039062 634.199219 L 511.085938 647.800781 L 506.710938 645.480469 C 503.660156 643.859375 500.789062 643.15625 497.210938 643.15625 C 492.6875 643.15625 492.027344 642.902344 491.589844 640.996094 C 490.6875 637.101562 481.480469 591.851562 481.480469 591.328125 C 481.480469 590.6875 531.976562 591.132812 546.597656 591.902344 Z M 594.050781 603.207031 C 609.582031 607.605469 624.582031 611.746094 627.382812 612.410156 C 632.421875 613.601562 632.476562 613.652344 632.191406 616.949219 L 631.898438 620.285156 L 615.078125 626.503906 C 572.609375 642.203125 519.792969 661.394531 519.054688 661.394531 C 518.609375 661.394531 518.003906 660.207031 517.714844 658.753906 C 517.421875 657.300781 516.101562 654.519531 514.777344 652.570312 C 513.453125 650.625 512.695312 648.894531 513.089844 648.734375 C 513.90625 648.394531 530.136719 630.109375 547.613281 609.835938 C 559.886719 595.597656 561.679688 593.96875 564.257812 594.742188 C 565.117188 595 578.523438 598.8125 594.050781 603.207031 Z M 594.050781 603.207031 " fill-opacity="1" fill-rule="evenodd"/></g><path fill="#4360e0" d="M 1068.167969 273.878906 L 1120.582031 273.878906 L 1120.582031 241.367188 L 1068.167969 241.367188 Z M 1122.203125 277.125 L 1066.542969 277.125 C 1065.644531 277.125 1064.921875 276.398438 1064.921875 275.503906 L 1064.921875 239.746094 C 1064.921875 238.84375 1065.644531 238.121094 1066.542969 238.121094 L 1122.203125 238.121094 C 1123.101562 238.121094 1123.828125 238.84375 1123.828125 239.746094 L 1123.828125 275.503906 C 1123.828125 276.398438 1123.101562 277.125 1122.203125 277.125 " fill-opacity="1" fill-rule="evenodd"/><path fill="#4360e0" d="M 1130.671875 267.789062 L 1122.207031 267.789062 C 1121.308594 267.789062 1120.582031 267.0625 1120.582031 266.167969 C 1120.582031 265.269531 1121.308594 264.542969 1122.203125 264.542969 L 1129.046875 264.542969 L 1129.046875 250.707031 L 1122.207031 250.707031 C 1121.308594 250.707031 1120.582031 249.976562 1120.582031 249.082031 C 1120.582031 248.1875 1121.308594 247.460938 1122.203125 247.460938 L 1130.671875 247.460938 C 1131.566406 247.460938 1132.292969 248.1875 1132.292969 249.082031 L 1132.292969 266.167969 C 1132.292969 267.0625 1131.566406 267.789062 1130.671875 267.789062 " fill-opacity="1" fill-rule="evenodd"/><path fill="#4360e0" d="M 1086.734375 285.726562 C 1085.839844 285.726562 1085.109375 285 1085.109375 284.105469 L 1085.109375 275.503906 C 1085.109375 274.605469 1085.835938 273.878906 1086.734375 273.878906 C 1087.632812 273.878906 1088.355469 274.605469 1088.355469 275.503906 L 1088.359375 284.105469 C 1088.359375 285 1087.628906 285.726562 1086.734375 285.726562 Z M 1102.011719 285.726562 C 1101.117188 285.726562 1100.390625 285 1100.390625 284.105469 L 1100.390625 275.503906 C 1100.390625 274.605469 1101.117188 273.878906 1102.011719 273.878906 C 1102.910156 273.878906 1103.636719 274.605469 1103.636719 275.503906 L 1103.636719 284.105469 C 1103.636719 285 1102.910156 285.726562 1102.011719 285.726562 " fill-opacity="1" fill-rule="evenodd"/><path fill="#4360e0" d="M 1109.171875 293.09375 C 1108.277344 293.09375 1107.550781 292.367188 1107.550781 291.472656 L 1107.550781 285.726562 L 1081.191406 285.726562 L 1081.191406 291.472656 C 1081.191406 292.367188 1080.46875 293.09375 1079.570312 293.09375 C 1078.675781 293.09375 1077.945312 292.367188 1077.945312 291.472656 L 1077.949219 284.105469 C 1077.949219 283.207031 1078.671875 282.480469 1079.570312 282.480469 L 1109.171875 282.480469 C 1110.070312 282.480469 1110.796875 283.207031 1110.796875 284.105469 L 1110.796875 291.472656 C 1110.796875 292.367188 1110.070312 293.09375 1109.171875 293.09375 " fill-opacity="1" fill-rule="evenodd"/><path fill="#4360e0" d="M 1056.257812 337.863281 L 1132.492188 337.863281 L 1132.492188 293.101562 L 1056.257812 293.101562 Z M 1134.121094 341.121094 L 1054.625 341.121094 C 1053.722656 341.121094 1052.992188 340.394531 1052.992188 339.488281 L 1052.996094 291.472656 C 1052.996094 290.570312 1053.722656 289.839844 1054.625 289.839844 L 1134.121094 289.839844 C 1135.023438 289.839844 1135.75 290.570312 1135.75 291.472656 L 1135.75 339.488281 C 1135.75 340.394531 1135.023438 341.121094 1134.121094 341.121094 " fill-opacity="1" fill-rule="evenodd"/><path fill="#4360e0" d="M 1079.125 253.476562 C 1076.839844 253.476562 1074.980469 255.335938 1074.980469 257.625 C 1074.980469 259.910156 1076.839844 261.765625 1079.121094 261.765625 C 1081.410156 261.765625 1083.269531 259.910156 1083.269531 257.625 C 1083.269531 255.335938 1081.40625 253.476562 1079.125 253.476562 Z M 1079.125 265.011719 C 1075.046875 265.011719 1071.734375 261.699219 1071.734375 257.625 C 1071.734375 253.550781 1075.046875 250.234375 1079.121094 250.234375 C 1083.199219 250.234375 1086.515625 253.550781 1086.515625 257.625 C 1086.515625 261.699219 1083.199219 265.011719 1079.125 265.011719 " fill-opacity="1" fill-rule="evenodd"/><path fill="#4360e0" d="M 1109.621094 253.476562 C 1107.335938 253.476562 1105.480469 255.335938 1105.480469 257.625 C 1105.480469 259.910156 1107.335938 261.765625 1109.621094 261.765625 C 1111.90625 261.765625 1113.765625 259.910156 1113.765625 257.625 C 1113.769531 255.335938 1111.90625 253.476562 1109.621094 253.476562 Z M 1109.621094 265.011719 C 1105.546875 265.011719 1102.234375 261.699219 1102.234375 257.625 C 1102.234375 253.550781 1105.546875 250.234375 1109.621094 250.234375 C 1113.695312 250.234375 1117.011719 253.550781 1117.011719 257.625 C 1117.015625 261.699219 1113.695312 265.011719 1109.621094 265.011719 " fill-opacity="1" fill-rule="evenodd"/><path fill="#4360e0" d="M 1066.878906 322.574219 L 1072.265625 322.574219 L 1072.265625 308.390625 L 1066.878906 308.390625 Z M 1073.898438 325.835938 L 1065.246094 325.835938 C 1064.347656 325.835938 1063.613281 325.105469 1063.613281 324.207031 L 1063.613281 306.757812 C 1063.613281 305.855469 1064.34375 305.121094 1065.246094 305.121094 L 1073.898438 305.121094 C 1074.796875 305.121094 1075.527344 305.855469 1075.527344 306.757812 L 1075.53125 324.207031 C 1075.53125 325.105469 1074.796875 325.835938 1073.898438 325.835938 " fill-opacity="1" fill-rule="evenodd"/><path fill="#4360e0" d="M 1108.214844 312.632812 L 1080.816406 312.632812 C 1079.921875 312.632812 1079.191406 311.90625 1079.191406 311.011719 C 1079.195312 310.113281 1079.921875 309.386719 1080.816406 309.386719 L 1108.214844 309.386719 C 1109.109375 309.386719 1109.835938 310.113281 1109.835938 311.011719 C 1109.835938 311.90625 1109.109375 312.632812 1108.214844 312.632812 " fill-opacity="1" fill-rule="evenodd"/><path fill="#4360e0" d="M 1108.214844 321.574219 L 1080.816406 321.574219 C 1079.921875 321.574219 1079.191406 320.847656 1079.191406 319.949219 C 1079.195312 319.054688 1079.921875 318.328125 1080.816406 318.328125 L 1108.214844 318.328125 C 1109.109375 318.328125 1109.835938 319.054688 1109.835938 319.949219 C 1109.835938 320.847656 1109.109375 321.574219 1108.214844 321.574219 " fill-opacity="1" fill-rule="evenodd"/><path fill="#4360e0" d="M 1116.480469 322.574219 L 1121.871094 322.574219 L 1121.871094 308.390625 L 1116.480469 308.390625 Z M 1123.503906 325.835938 L 1114.851562 325.835938 C 1113.945312 325.835938 1113.214844 325.105469 1113.214844 324.207031 L 1113.214844 306.757812 C 1113.214844 305.855469 1113.945312 305.125 1114.847656 305.125 L 1123.503906 305.125 C 1124.402344 305.125 1125.132812 305.855469 1125.132812 306.757812 L 1125.132812 324.207031 C 1125.132812 325.105469 1124.402344 325.835938 1123.503906 325.835938 " fill-opacity="1" fill-rule="evenodd"/><path fill="#4360e0" d="M 1094.371094 241.371094 C 1093.476562 241.371094 1092.746094 240.640625 1092.746094 239.746094 L 1092.75 223.78125 C 1092.75 222.886719 1093.476562 222.160156 1094.371094 222.160156 C 1095.265625 222.160156 1095.992188 222.886719 1095.992188 223.78125 L 1095.996094 239.746094 C 1095.996094 240.640625 1095.265625 241.371094 1094.371094 241.371094 " fill-opacity="1" fill-rule="evenodd"/><g clip-path="url(#0030e47439)"><path fill="#4360e0" d="M 1107.894531 390.902344 L 1128.710938 390.902344 C 1127.851562 387.050781 1123.507812 384.117188 1118.296875 384.117188 C 1116.0625 384.117188 1113.921875 384.65625 1112.113281 385.675781 C 1109.871094 386.941406 1108.367188 388.832031 1107.894531 390.902344 Z M 1130.488281 394.15625 L 1106.113281 394.15625 C 1105.230469 394.15625 1104.511719 393.453125 1104.484375 392.574219 C 1104.480469 392.484375 1104.480469 392.394531 1104.480469 392.300781 C 1104.480469 388.503906 1106.738281 384.972656 1110.515625 382.84375 C 1112.8125 381.542969 1115.503906 380.859375 1118.296875 380.859375 C 1125.917969 380.859375 1132.121094 385.996094 1132.121094 392.300781 C 1132.121094 392.394531 1132.113281 392.484375 1132.113281 392.574219 C 1132.089844 393.453125 1131.367188 394.15625 1130.488281 394.15625 " fill-opacity="1" fill-rule="evenodd"/></g><g clip-path="url(#6fc8a58e3e)"><path fill="#4360e0" d="M 1120.238281 384.238281 C 1119.34375 384.238281 1118.613281 383.507812 1118.613281 382.613281 L 1118.617188 339.492188 C 1118.617188 338.59375 1119.34375 337.871094 1120.238281 337.871094 C 1121.132812 337.871094 1121.859375 338.59375 1121.859375 339.492188 L 1121.863281 382.613281 C 1121.863281 383.507812 1121.132812 384.238281 1120.238281 384.238281 Z M 1106.113281 394.152344 C 1105.238281 394.152344 1104.519531 393.457031 1104.488281 392.578125 C 1104.488281 392.5 1104.484375 392.417969 1104.484375 392.335938 C 1104.488281 392.332031 1104.484375 392.320312 1104.484375 392.3125 C 1104.488281 392.308594 1104.484375 392.304688 1104.484375 392.300781 L 1104.488281 339.492188 C 1104.488281 338.59375 1105.210938 337.871094 1106.109375 337.871094 C 1107.003906 337.871094 1107.730469 338.59375 1107.730469 339.492188 L 1107.734375 392.300781 C 1107.734375 392.304688 1107.730469 392.308594 1107.730469 392.308594 L 1107.738281 392.5 C 1107.753906 393.390625 1107.046875 394.132812 1106.152344 394.152344 C 1106.140625 394.152344 1106.125 394.152344 1106.113281 394.152344 " fill-opacity="1" fill-rule="evenodd"/></g><g clip-path="url(#8c500110b2)"><path fill="#4360e0" d="M 1060.039062 390.902344 L 1080.851562 390.902344 C 1080.375 388.832031 1078.871094 386.941406 1076.628906 385.675781 C 1074.820312 384.65625 1072.679688 384.117188 1070.445312 384.117188 C 1065.238281 384.117188 1060.898438 387.050781 1060.039062 390.902344 Z M 1082.628906 394.15625 L 1058.261719 394.15625 C 1057.378906 394.15625 1056.660156 393.457031 1056.632812 392.585938 C 1056.628906 392.492188 1056.628906 392.394531 1056.628906 392.300781 C 1056.628906 385.996094 1062.824219 380.859375 1070.445312 380.859375 C 1073.238281 380.859375 1075.929688 381.542969 1078.230469 382.839844 C 1082.007812 384.972656 1084.261719 388.503906 1084.261719 392.300781 C 1084.261719 392.394531 1084.261719 392.484375 1084.257812 392.574219 C 1084.234375 393.453125 1083.511719 394.15625 1082.628906 394.15625 " fill-opacity="1" fill-rule="evenodd"/></g><g clip-path="url(#98b6fc9991)"><path fill="#4360e0" d="M 1068.503906 384.238281 C 1067.609375 384.238281 1066.882812 383.507812 1066.882812 382.613281 L 1066.882812 339.492188 C 1066.882812 338.59375 1067.609375 337.871094 1068.503906 337.871094 C 1069.402344 337.871094 1070.128906 338.59375 1070.128906 339.492188 L 1070.128906 382.613281 C 1070.128906 383.507812 1069.402344 384.238281 1068.503906 384.238281 Z M 1082.632812 394.152344 C 1082.195312 394.152344 1081.777344 393.976562 1081.46875 393.660156 C 1081.164062 393.34375 1080.996094 392.917969 1081.011719 392.476562 L 1081.011719 392.3125 C 1081.011719 392.308594 1081.011719 392.304688 1081.011719 392.300781 L 1081.011719 339.492188 C 1081.011719 338.59375 1081.738281 337.871094 1082.632812 337.871094 C 1083.53125 337.871094 1084.257812 338.59375 1084.257812 339.492188 L 1084.257812 392.300781 C 1084.257812 392.304688 1084.257812 392.308594 1084.257812 392.3125 C 1084.257812 392.316406 1084.257812 392.320312 1084.257812 392.324219 L 1084.257812 392.527344 C 1084.257812 393.425781 1083.53125 394.152344 1082.632812 394.152344 " fill-opacity="1" fill-rule="evenodd"/></g><path fill="#4360e0" d="M 1066.542969 267.789062 L 1058.078125 267.789062 C 1057.183594 267.789062 1056.453125 267.0625 1056.453125 266.167969 L 1056.457031 249.082031 C 1056.457031 248.1875 1057.179688 247.460938 1058.078125 247.460938 L 1066.542969 247.460938 C 1067.441406 247.460938 1068.167969 248.1875 1068.167969 249.082031 C 1068.167969 249.976562 1067.4375 250.707031 1066.542969 250.707031 L 1059.699219 250.707031 L 1059.699219 264.542969 L 1066.542969 264.542969 C 1067.441406 264.542969 1068.167969 265.269531 1068.167969 266.167969 C 1068.167969 267.0625 1067.4375 267.789062 1066.542969 267.789062 " fill-opacity="1" fill-rule="evenodd"/><g clip-path="url(#9434cc3e6e)"><path fill="#4360e0" d="M 1094.371094 212.367188 C 1091.671875 212.367188 1089.476562 214.5625 1089.476562 217.265625 C 1089.476562 219.960938 1091.671875 222.160156 1094.371094 222.160156 C 1097.070312 222.160156 1099.269531 219.960938 1099.269531 217.265625 C 1099.269531 214.5625 1097.070312 212.367188 1094.371094 212.367188 Z M 1094.371094 225.40625 C 1089.882812 225.40625 1086.230469 221.753906 1086.230469 217.265625 C 1086.230469 212.773438 1089.882812 209.121094 1094.371094 209.121094 C 1098.863281 209.121094 1102.515625 212.773438 1102.515625 217.265625 C 1102.515625 221.753906 1098.863281 225.40625 1094.371094 225.40625 " fill-opacity="1" fill-rule="evenodd"/></g><path fill="#4360e0" d="M 1155.230469 303.273438 L 1134.121094 303.273438 C 1133.222656 303.273438 1132.5 302.546875 1132.5 301.648438 C 1132.5 300.753906 1133.226562 300.027344 1134.121094 300.027344 L 1155.230469 300.027344 C 1156.125 300.027344 1156.851562 300.753906 1156.851562 301.648438 C 1156.851562 302.550781 1156.125 303.273438 1155.230469 303.273438 " fill-opacity="1" fill-rule="evenodd"/><path fill="#4360e0" d="M 1155.230469 329.730469 C 1154.335938 329.730469 1153.605469 329.003906 1153.605469 328.105469 L 1153.609375 301.648438 C 1153.609375 300.753906 1154.332031 300.027344 1155.230469 300.027344 C 1156.125 300.027344 1156.851562 300.753906 1156.851562 301.648438 L 1156.851562 328.105469 C 1156.851562 329.003906 1156.125 329.730469 1155.230469 329.730469 " fill-opacity="1" fill-rule="evenodd"/><g clip-path="url(#489b53a4c5)"><path fill="#4360e0" d="M 1163.46875 349.609375 C 1163.050781 349.609375 1162.632812 349.453125 1162.316406 349.136719 C 1161.683594 348.5 1161.683594 347.472656 1162.316406 346.839844 C 1166.222656 342.929688 1166.222656 336.574219 1162.316406 332.667969 C 1160.425781 330.773438 1157.910156 329.730469 1155.230469 329.730469 C 1152.554688 329.730469 1150.039062 330.773438 1148.144531 332.667969 C 1144.238281 336.574219 1144.234375 342.929688 1148.144531 346.839844 C 1148.78125 347.472656 1148.78125 348.5 1148.144531 349.136719 C 1147.511719 349.769531 1146.484375 349.769531 1145.851562 349.136719 C 1140.679688 343.960938 1140.675781 335.546875 1145.851562 330.371094 C 1148.359375 327.867188 1151.6875 326.484375 1155.230469 326.484375 C 1158.777344 326.484375 1162.105469 327.867188 1164.613281 330.371094 C 1169.785156 335.546875 1169.785156 343.960938 1164.613281 349.136719 C 1164.296875 349.453125 1163.882812 349.609375 1163.46875 349.609375 " fill-opacity="1" fill-rule="evenodd"/></g><path fill="#4360e0" d="M 1033.511719 303.269531 C 1032.617188 303.269531 1031.890625 302.550781 1031.890625 301.648438 C 1031.890625 300.753906 1032.617188 300.027344 1033.511719 300.027344 L 1054.625 300.027344 C 1055.523438 300.027344 1056.246094 300.753906 1056.246094 301.648438 C 1056.25 302.542969 1055.519531 303.273438 1054.625 303.273438 L 1033.511719 303.269531 " fill-opacity="1" fill-rule="evenodd"/><path fill="#4360e0" d="M 1033.511719 329.730469 C 1032.617188 329.730469 1031.890625 329.003906 1031.890625 328.105469 L 1031.890625 301.648438 C 1031.890625 300.753906 1032.617188 300.027344 1033.511719 300.027344 C 1034.410156 300.027344 1035.136719 300.753906 1035.136719 301.648438 L 1035.136719 328.105469 C 1035.136719 329.003906 1034.410156 329.730469 1033.511719 329.730469 " fill-opacity="1" fill-rule="evenodd"/><path fill="#4360e0" d="M 1041.746094 349.609375 C 1041.332031 349.609375 1040.917969 349.453125 1040.601562 349.132812 C 1039.96875 348.5 1039.964844 347.472656 1040.601562 346.839844 C 1044.503906 342.929688 1044.503906 336.574219 1040.601562 332.667969 C 1036.691406 328.757812 1030.332031 328.757812 1026.425781 332.667969 C 1022.519531 336.574219 1022.519531 342.929688 1026.425781 346.839844 C 1027.058594 347.472656 1027.058594 348.5 1026.425781 349.132812 C 1025.796875 349.769531 1024.761719 349.769531 1024.132812 349.132812 C 1018.960938 343.960938 1018.960938 335.546875 1024.132812 330.371094 C 1029.304688 325.199219 1037.722656 325.199219 1042.894531 330.371094 C 1048.070312 335.546875 1048.070312 343.960938 1042.894531 349.132812 C 1042.578125 349.453125 1042.164062 349.609375 1041.746094 349.609375 " fill-opacity="1" fill-rule="evenodd"/><g fill="#4360e0" fill-opacity="1"><g transform="translate(864.429168, 481.402028)"><g><path d="M 19.015625 -23.125 C 9.023438 -25.425781 4.03125 -29.703125 4.03125 -35.953125 C 4.03125 -40.566406 5.640625 -44.023438 8.859375 -46.328125 C 12.078125 -48.585938 15.847656 -49.71875 20.171875 -49.71875 C 29.734375 -49.71875 35.398438 -46.160156 37.171875 -39.046875 L 31.703125 -39.046875 C 30.742188 -43.273438 26.898438 -45.390625 20.171875 -45.390625 C 15.460938 -45.390625 12.171875 -43.992188 10.296875 -41.203125 C 9.578125 -40.148438 9.21875 -38.832031 9.21875 -37.25 C 9.21875 -34.21875 10.851562 -31.890625 14.125 -30.265625 C 15.65625 -29.441406 18.921875 -28.382812 23.921875 -27.09375 C 28.910156 -25.789062 32.535156 -24.347656 34.796875 -22.765625 C 37.921875 -20.554688 39.484375 -17.457031 39.484375 -13.46875 C 39.484375 -8.519531 37.535156 -4.773438 33.640625 -2.234375 C 30.378906 -0.117188 26.347656 0.9375 21.546875 0.9375 C 10.691406 0.9375 4.398438 -3.191406 2.671875 -11.453125 L 8.640625 -11.453125 C 9.554688 -6.265625 13.859375 -3.671875 21.546875 -3.671875 C 27.015625 -3.671875 30.832031 -5.1875 33 -8.21875 C 33.863281 -9.414062 34.296875 -11.046875 34.296875 -13.109375 C 34.296875 -15.128906 33.503906 -16.785156 31.921875 -18.078125 C 29.660156 -19.910156 25.359375 -21.59375 19.015625 -23.125 Z M 19.015625 -23.125 "/></g></g></g><g fill="#4360e0" fill-opacity="1"><g transform="translate(905.78404, 481.402028)"><g><path d="M 30.625 -15.84375 C 30.625 -18.925781 29.566406 -21.617188 27.453125 -23.921875 C 25.285156 -26.222656 22.617188 -27.375 19.453125 -27.375 C 16.285156 -27.375 13.644531 -26.222656 11.53125 -23.921875 C 9.363281 -21.617188 8.28125 -18.925781 8.28125 -15.84375 C 8.28125 -12.769531 9.363281 -10.082031 11.53125 -7.78125 C 13.644531 -5.476562 16.285156 -4.328125 19.453125 -4.328125 C 22.617188 -4.328125 25.285156 -5.476562 27.453125 -7.78125 C 29.566406 -10.082031 30.625 -12.769531 30.625 -15.84375 Z M 35.65625 0 L 30.625 0 L 30.625 -5.40625 C 30.332031 -5.019531 30.039062 -4.660156 29.75 -4.328125 C 26.726562 -0.960938 23.03125 0.71875 18.65625 0.71875 C 14.289062 0.71875 10.617188 -0.960938 7.640625 -4.328125 C 4.703125 -7.585938 3.234375 -11.425781 3.234375 -15.84375 C 3.234375 -20.269531 4.703125 -24.113281 7.640625 -27.375 C 10.617188 -30.738281 14.289062 -32.421875 18.65625 -32.421875 C 23.03125 -32.421875 26.726562 -30.738281 29.75 -27.375 C 30.039062 -27.039062 30.332031 -26.679688 30.625 -26.296875 L 30.625 -31.703125 L 35.65625 -31.703125 Z M 35.65625 0 "/></g></g></g><g fill="#4360e0" fill-opacity="1"><g transform="translate(946.850727, 481.402028)"><g><path d="M 22.40625 -49.359375 L 18.078125 -49.359375 C 16.398438 -49.359375 15.296875 -48.972656 14.765625 -48.203125 C 14.242188 -47.429688 13.984375 -46.492188 13.984375 -45.390625 L 13.984375 -31.703125 L 22.40625 -31.703125 L 22.40625 -27.015625 L 13.984375 -27.015625 L 13.984375 0 L 8.9375 0 L 8.9375 -27.015625 L 2.515625 -27.015625 L 2.515625 -31.703125 L 8.9375 -31.703125 L 8.9375 -43.953125 C 8.9375 -47.171875 9.703125 -49.664062 11.234375 -51.4375 C 12.722656 -53.164062 15.242188 -54.03125 18.796875 -54.03125 L 22.40625 -54.03125 Z M 22.40625 -49.359375 "/></g></g></g><g fill="#4360e0" fill-opacity="1"><g transform="translate(971.418684, 481.402028)"><g><path d="M 36.390625 -16.578125 L 36.390625 -13.90625 L 8.5 -13.90625 C 8.976562 -11.164062 10.300781 -8.929688 12.46875 -7.203125 C 14.675781 -5.421875 17.125 -4.53125 19.8125 -4.53125 C 21.632812 -4.53125 23.390625 -4.960938 25.078125 -5.828125 C 26.703125 -6.648438 28.066406 -7.804688 29.171875 -9.296875 L 34.9375 -9.296875 C 33.59375 -6.265625 31.578125 -3.882812 28.890625 -2.15625 C 26.148438 -0.382812 23.390625 0.5 20.609375 0.5 C 17.773438 0.5 15.375 0.0664062 13.40625 -0.796875 C 11.382812 -1.660156 9.628906 -2.835938 8.140625 -4.328125 C 4.867188 -7.492188 3.234375 -11.382812 3.234375 -16 C 3.234375 -20.5625 4.867188 -24.472656 8.140625 -27.734375 C 11.359375 -30.953125 15.25 -32.5625 19.8125 -32.5625 C 24.226562 -32.5625 28.09375 -31 31.40625 -27.875 C 34.726562 -24.707031 36.390625 -20.941406 36.390625 -16.578125 Z M 31.046875 -18.234375 C 30.472656 -20.921875 29.128906 -23.148438 27.015625 -24.921875 C 24.898438 -26.648438 22.5 -27.515625 19.8125 -27.515625 C 15.675781 -27.515625 12.4375 -25.664062 10.09375 -21.96875 C 9.363281 -20.820312 8.859375 -19.578125 8.578125 -18.234375 Z M 31.046875 -18.234375 "/></g></g></g><g fill="#4360e0" fill-opacity="1"><g transform="translate(1010.684196, 481.402028)"><g/></g></g><g fill="#4360e0" fill-opacity="1"><g transform="translate(1030.13684, 481.402028)"><g><path d="M 18.953125 -24.859375 C 16.160156 -22.835938 14.238281 -21.300781 13.1875 -20.25 C 10.832031 -17.894531 9.65625 -15.707031 9.65625 -13.6875 C 9.65625 -11.289062 10.539062 -9.128906 12.3125 -7.203125 C 14.039062 -5.285156 16.132812 -4.328125 18.59375 -4.328125 C 21.226562 -4.328125 24.15625 -5.835938 27.375 -8.859375 C 28.195312 -9.628906 28.96875 -10.375 29.6875 -11.09375 Z M 18.515625 -32.921875 C 19.085938 -32.296875 19.640625 -31.671875 20.171875 -31.046875 C 20.890625 -31.578125 21.660156 -32.128906 22.484375 -32.703125 C 23.242188 -33.234375 23.960938 -33.835938 24.640625 -34.515625 C 26.179688 -36.046875 26.953125 -37.703125 26.953125 -39.484375 C 26.953125 -41.253906 26.347656 -42.644531 25.140625 -43.65625 C 23.941406 -44.664062 22.625 -45.21875 21.1875 -45.3125 C 19.695312 -45.363281 18.347656 -44.910156 17.140625 -43.953125 C 15.941406 -42.984375 15.34375 -41.445312 15.34375 -39.34375 C 15.34375 -37.226562 16.398438 -35.085938 18.515625 -32.921875 Z M 42.875 -19.09375 C 42.144531 -18.082031 39.984375 -15.390625 36.390625 -11.015625 L 44.8125 0 L 38.1875 0.140625 L 32.859375 -6.84375 C 30.453125 -4.4375 28.53125 -2.78125 27.09375 -1.875 C 24.15625 -0.0507812 21.5625 0.859375 19.3125 0.859375 C 17.050781 0.859375 15.054688 0.5 13.328125 -0.21875 C 11.546875 -0.882812 10.035156 -1.867188 8.796875 -3.171875 C 6.054688 -5.859375 4.6875 -9.242188 4.6875 -13.328125 C 4.6875 -18.035156 7.015625 -22.117188 11.671875 -25.578125 C 13.015625 -26.535156 14.40625 -27.546875 15.84375 -28.609375 C 12.382812 -32.585938 10.65625 -36.113281 10.65625 -39.1875 C 10.65625 -42.21875 11.617188 -44.742188 13.546875 -46.765625 C 15.460938 -48.734375 18.007812 -49.71875 21.1875 -49.71875 C 24.207031 -49.71875 26.703125 -48.78125 28.671875 -46.90625 C 30.640625 -44.976562 31.625 -42.523438 31.625 -39.546875 C 31.625 -36.378906 29.753906 -33.257812 26.015625 -30.1875 C 25.003906 -29.320312 24.039062 -28.53125 23.125 -27.8125 L 33.21875 -14.90625 C 34.175781 -16.0625 35.109375 -17.21875 36.015625 -18.375 L 38.765625 -21.828125 Z M 42.875 -19.09375 "/></g></g></g><g fill="#4360e0" fill-opacity="1"><g transform="translate(1079.777096, 481.402028)"><g/></g></g><g fill="#4360e0" fill-opacity="1"><g transform="translate(1099.229739, 481.402028)"><g><path d="M 1.4375 -44.453125 L 1.4375 -49.140625 L 30.265625 -49.140625 L 30.265625 -44.453125 L 18.375 -44.453125 L 18.375 -0.140625 L 13.328125 -0.140625 L 13.328125 -44.453125 Z M 1.4375 -44.453125 "/></g></g></g><g fill="#4360e0" fill-opacity="1"><g transform="translate(1130.93033, 481.402028)"><g><path d="M 21.6875 -25.140625 C 20.53125 -26.203125 19.28125 -26.734375 17.9375 -26.734375 C 16.644531 -26.734375 15.539062 -26.375 14.625 -25.65625 C 13.664062 -24.882812 12.875 -23.96875 12.25 -22.90625 C 11.050781 -20.789062 10.453125 -18.4375 10.453125 -15.84375 L 10.453125 0 L 5.40625 0 L 5.40625 -31.703125 L 10.453125 -31.703125 L 10.453125 -25.140625 L 10.65625 -26.4375 C 12.34375 -30.375 14.960938 -32.34375 18.515625 -32.34375 C 19.617188 -32.34375 20.675781 -32.128906 21.6875 -31.703125 Z M 21.6875 -25.140625 "/></g></g></g><g fill="#4360e0" fill-opacity="1"><g transform="translate(1153.336899, 481.402028)"><g><path d="M 27.3125 -5.40625 C 24.957031 -1.375 21.425781 0.640625 16.71875 0.640625 C 13.164062 0.640625 10.378906 -0.53125 8.359375 -2.875 C 6.390625 -5.226562 5.40625 -8.234375 5.40625 -11.890625 L 5.40625 -31.703125 L 10.453125 -31.703125 L 10.453125 -11.890625 C 10.453125 -9.828125 10.929688 -8.070312 11.890625 -6.625 C 12.796875 -5.132812 14.332031 -4.390625 16.5 -4.390625 C 20.4375 -4.390625 23.222656 -5.640625 24.859375 -8.140625 C 26.492188 -10.585938 27.3125 -14.019531 27.3125 -18.4375 L 27.3125 -31.703125 L 32.34375 -31.703125 L 32.34375 0 L 27.3125 0 Z M 27.3125 -5.40625 "/></g></g></g><g fill="#4360e0" fill-opacity="1"><g transform="translate(1190.008711, 481.402028)"><g><path d="M 10.015625 -4.53125 C 11.265625 -3.664062 12.894531 -3.234375 14.90625 -3.234375 C 19.519531 -3.234375 21.828125 -4.960938 21.828125 -8.421875 C 21.828125 -10.441406 20.171875 -11.984375 16.859375 -13.046875 C 15.460938 -13.523438 13.972656 -13.957031 12.390625 -14.34375 C 10.753906 -14.71875 9.242188 -15.21875 7.859375 -15.84375 C 6.222656 -16.613281 4.992188 -17.578125 4.171875 -18.734375 C 3.359375 -19.890625 2.953125 -21.257812 2.953125 -22.84375 C 2.953125 -26.007812 4.054688 -28.382812 6.265625 -29.96875 C 8.472656 -31.601562 11.113281 -32.421875 14.1875 -32.421875 C 17.257812 -32.421875 19.804688 -31.796875 21.828125 -30.546875 C 23.847656 -29.296875 25.21875 -27.0625 25.9375 -23.84375 L 20.53125 -23.84375 C 19.957031 -25.625 19.117188 -26.800781 18.015625 -27.375 C 16.953125 -27.957031 15.628906 -28.25 14.046875 -28.25 C 12.460938 -28.25 11.117188 -27.910156 10.015625 -27.234375 C 8.859375 -26.515625 8.28125 -25.457031 8.28125 -24.0625 C 8.28125 -22.625 8.757812 -21.566406 9.71875 -20.890625 C 10.632812 -20.265625 11.789062 -19.710938 13.1875 -19.234375 C 14.582031 -18.804688 16.09375 -18.421875 17.71875 -18.078125 C 19.300781 -17.691406 20.816406 -17.164062 22.265625 -16.5 C 25.523438 -14.957031 27.15625 -12.484375 27.15625 -9.078125 C 27.15625 -5.671875 25.929688 -3.148438 23.484375 -1.515625 C 22.234375 -0.691406 20.863281 -0.0664062 19.375 0.359375 C 17.9375 0.742188 16.351562 0.9375 14.625 0.9375 C 7.28125 0.9375 3.050781 -2.328125 1.9375 -8.859375 L 7.28125 -8.859375 C 7.800781 -6.796875 8.710938 -5.351562 10.015625 -4.53125 Z M 10.015625 -4.53125 "/></g></g></g><g fill="#4360e0" fill-opacity="1"><g transform="translate(1218.971532, 481.402028)"><g><path d="M 1.4375 -27.015625 L 1.4375 -31.703125 L 9.359375 -31.703125 L 9.359375 -44.015625 L 14.40625 -44.015625 L 14.40625 -31.703125 L 22.265625 -31.703125 L 22.265625 -27.015625 L 14.40625 -27.015625 L 14.40625 0 L 9.359375 0 L 9.359375 -27.015625 Z M 1.4375 -27.015625 "/></g></g></g><g fill="#4360e0" fill-opacity="1"><g transform="translate(1242.674923, 481.402028)"><g><path d="M 36.390625 -16.578125 L 36.390625 -13.90625 L 8.5 -13.90625 C 8.976562 -11.164062 10.300781 -8.929688 12.46875 -7.203125 C 14.675781 -5.421875 17.125 -4.53125 19.8125 -4.53125 C 21.632812 -4.53125 23.390625 -4.960938 25.078125 -5.828125 C 26.703125 -6.648438 28.066406 -7.804688 29.171875 -9.296875 L 34.9375 -9.296875 C 33.59375 -6.265625 31.578125 -3.882812 28.890625 -2.15625 C 26.148438 -0.382812 23.390625 0.5 20.609375 0.5 C 17.773438 0.5 15.375 0.0664062 13.40625 -0.796875 C 11.382812 -1.660156 9.628906 -2.835938 8.140625 -4.328125 C 4.867188 -7.492188 3.234375 -11.382812 3.234375 -16 C 3.234375 -20.5625 4.867188 -24.472656 8.140625 -27.734375 C 11.359375 -30.953125 15.25 -32.5625 19.8125 -32.5625 C 24.226562 -32.5625 28.09375 -31 31.40625 -27.875 C 34.726562 -24.707031 36.390625 -20.941406 36.390625 -16.578125 Z M 31.046875 -18.234375 C 30.472656 -20.921875 29.128906 -23.148438 27.015625 -24.921875 C 24.898438 -26.648438 22.5 -27.515625 19.8125 -27.515625 C 15.675781 -27.515625 12.4375 -25.664062 10.09375 -21.96875 C 9.363281 -20.820312 8.859375 -19.578125 8.578125 -18.234375 Z M 31.046875 -18.234375 "/></g></g></g><g fill="#4360e0" fill-opacity="1"><g transform="translate(1281.940424, 481.402028)"><g><path d="M 30.625 -15.84375 C 30.625 -18.925781 29.566406 -21.617188 27.453125 -23.921875 C 25.285156 -26.222656 22.617188 -27.375 19.453125 -27.375 C 16.285156 -27.375 13.644531 -26.222656 11.53125 -23.921875 C 9.363281 -21.617188 8.28125 -18.925781 8.28125 -15.84375 C 8.28125 -12.769531 9.363281 -10.082031 11.53125 -7.78125 C 13.644531 -5.476562 16.285156 -4.328125 19.453125 -4.328125 C 22.617188 -4.328125 25.285156 -5.476562 27.453125 -7.78125 C 29.566406 -10.082031 30.625 -12.769531 30.625 -15.84375 Z M 35.65625 0 L 30.625 0 L 30.625 -5.40625 C 30.332031 -5.019531 30.039062 -4.660156 29.75 -4.328125 C 26.726562 -0.960938 23.03125 0.71875 18.65625 0.71875 C 14.289062 0.71875 10.617188 -0.960938 7.640625 -4.328125 C 4.703125 -7.585938 3.234375 -11.425781 3.234375 -15.84375 C 3.234375 -20.269531 4.703125 -24.113281 7.640625 -27.375 C 10.617188 -30.738281 14.289062 -32.421875 18.65625 -32.421875 C 23.03125 -32.421875 26.726562 -30.738281 29.75 -27.375 C 30.039062 -27.039062 30.332031 -26.679688 30.625 -26.296875 L 30.625 -54.03125 L 35.65625 -54.03125 Z M 35.65625 0 "/></g></g></g><g fill="#4360e0" fill-opacity="1"><g transform="translate(888.640105, 581.902023)"><g><path d="M 48.5625 -24.640625 C 48.5625 -30.160156 46.59375 -34.890625 42.65625 -38.828125 C 38.71875 -42.765625 33.960938 -44.734375 28.390625 -44.734375 C 22.859375 -44.734375 18.125 -42.765625 14.1875 -38.828125 C 10.25 -34.890625 8.28125 -30.160156 8.28125 -24.640625 C 8.28125 -19.066406 10.25 -14.3125 14.1875 -10.375 C 18.125 -6.4375 22.859375 -4.46875 28.390625 -4.46875 C 33.960938 -4.46875 38.71875 -6.4375 42.65625 -10.375 C 46.59375 -14.3125 48.5625 -19.066406 48.5625 -24.640625 Z M 53.609375 -24.640625 C 53.609375 -21.179688 52.957031 -17.914062 51.65625 -14.84375 C 50.3125 -11.769531 48.507812 -9.101562 46.25 -6.84375 C 43.945312 -4.539062 41.257812 -2.738281 38.1875 -1.4375 C 35.113281 -0.09375 31.847656 0.578125 28.390625 0.578125 C 24.929688 0.578125 21.6875 -0.09375 18.65625 -1.4375 C 15.582031 -2.738281 12.914062 -4.539062 10.65625 -6.84375 C 8.351562 -9.101562 6.554688 -11.769531 5.265625 -14.84375 C 3.910156 -17.914062 3.234375 -21.179688 3.234375 -24.640625 C 3.234375 -28.097656 3.910156 -31.363281 5.265625 -34.4375 C 6.554688 -37.507812 8.351562 -40.175781 10.65625 -42.4375 C 12.914062 -44.695312 15.582031 -46.5 18.65625 -47.84375 C 21.6875 -49.132812 24.929688 -49.78125 28.390625 -49.78125 C 31.847656 -49.78125 35.113281 -49.132812 38.1875 -47.84375 C 41.257812 -46.5 43.945312 -44.695312 46.25 -42.4375 C 48.507812 -40.175781 50.3125 -37.507812 51.65625 -34.4375 C 52.957031 -31.363281 53.609375 -28.097656 53.609375 -24.640625 Z M 53.609375 -24.640625 "/></g></g></g><g fill="#4360e0" fill-opacity="1"><g transform="translate(945.485034, 581.902023)"><g><path d="M 10.453125 18.015625 L 5.40625 18.015625 L 5.40625 -31.703125 L 10.453125 -31.703125 L 10.453125 -26.296875 C 10.734375 -26.679688 11.046875 -27.039062 11.390625 -27.375 C 14.359375 -30.738281 18.03125 -32.421875 22.40625 -32.421875 C 26.78125 -32.421875 30.476562 -30.738281 33.5 -27.375 C 36.382812 -24.113281 37.828125 -20.269531 37.828125 -15.84375 C 37.828125 -11.425781 36.382812 -7.585938 33.5 -4.328125 C 30.476562 -0.960938 26.78125 0.71875 22.40625 0.71875 C 18.03125 0.71875 14.359375 -0.960938 11.390625 -4.328125 C 11.046875 -4.660156 10.734375 -5.019531 10.453125 -5.40625 Z M 32.78125 -15.84375 C 32.78125 -18.925781 31.722656 -21.617188 29.609375 -23.921875 C 27.453125 -26.222656 24.785156 -27.375 21.609375 -27.375 C 18.441406 -27.375 15.800781 -26.222656 13.6875 -23.921875 C 11.53125 -21.617188 10.453125 -18.925781 10.453125 -15.84375 C 10.453125 -12.769531 11.53125 -10.082031 13.6875 -7.78125 C 15.800781 -5.476562 18.441406 -4.328125 21.609375 -4.328125 C 24.785156 -4.328125 27.453125 -5.476562 29.609375 -7.78125 C 31.722656 -10.082031 32.78125 -12.769531 32.78125 -15.84375 Z M 32.78125 -15.84375 "/></g></g></g><g fill="#4360e0" fill-opacity="1"><g transform="translate(986.551721, 581.902023)"><g><path d="M 36.390625 -16.578125 L 36.390625 -13.90625 L 8.5 -13.90625 C 8.976562 -11.164062 10.300781 -8.929688 12.46875 -7.203125 C 14.675781 -5.421875 17.125 -4.53125 19.8125 -4.53125 C 21.632812 -4.53125 23.390625 -4.960938 25.078125 -5.828125 C 26.703125 -6.648438 28.066406 -7.804688 29.171875 -9.296875 L 34.9375 -9.296875 C 33.59375 -6.265625 31.578125 -3.882812 28.890625 -2.15625 C 26.148438 -0.382812 23.390625 0.5 20.609375 0.5 C 17.773438 0.5 15.375 0.0664062 13.40625 -0.796875 C 11.382812 -1.660156 9.628906 -2.835938 8.140625 -4.328125 C 4.867188 -7.492188 3.234375 -11.382812 3.234375 -16 C 3.234375 -20.5625 4.867188 -24.472656 8.140625 -27.734375 C 11.359375 -30.953125 15.25 -32.5625 19.8125 -32.5625 C 24.226562 -32.5625 28.09375 -31 31.40625 -27.875 C 34.726562 -24.707031 36.390625 -20.941406 36.390625 -16.578125 Z M 31.046875 -18.234375 C 30.472656 -20.921875 29.128906 -23.148438 27.015625 -24.921875 C 24.898438 -26.648438 22.5 -27.515625 19.8125 -27.515625 C 15.675781 -27.515625 12.4375 -25.664062 10.09375 -21.96875 C 9.363281 -20.820312 8.859375 -19.578125 8.578125 -18.234375 Z M 31.046875 -18.234375 "/></g></g></g><g fill="#4360e0" fill-opacity="1"><g transform="translate(1025.817233, 581.902023)"><g><path d="M 27.3125 0 L 27.3125 -19.8125 C 27.3125 -21.875 26.851562 -23.648438 25.9375 -25.140625 C 24.976562 -26.585938 23.414062 -27.3125 21.25 -27.3125 C 19.09375 -27.3125 17.34375 -26.898438 16 -26.078125 C 14.65625 -25.265625 13.570312 -24.207031 12.75 -22.90625 C 11.21875 -20.507812 10.453125 -17.289062 10.453125 -13.25 L 10.453125 0 L 5.40625 0 L 5.40625 -31.703125 L 10.453125 -31.703125 L 10.453125 -26.21875 C 11.503906 -28 12.847656 -29.46875 14.484375 -30.625 C 16.210938 -31.769531 18.207031 -32.34375 20.46875 -32.34375 C 22.71875 -32.34375 24.539062 -32.03125 25.9375 -31.40625 C 27.332031 -30.738281 28.507812 -29.851562 29.46875 -28.75 C 31.382812 -26.488281 32.34375 -23.507812 32.34375 -19.8125 L 32.34375 0 Z M 27.3125 0 "/></g></g></g><g fill="#4360e0" fill-opacity="1"><g transform="translate(1062.489056, 581.902023)"><g/></g></g><g fill="#4360e0" fill-opacity="1"><g transform="translate(1081.9417, 581.902023)"><g><path d="M 19.015625 -23.125 C 9.023438 -25.425781 4.03125 -29.703125 4.03125 -35.953125 C 4.03125 -40.566406 5.640625 -44.023438 8.859375 -46.328125 C 12.078125 -48.585938 15.847656 -49.71875 20.171875 -49.71875 C 29.734375 -49.71875 35.398438 -46.160156 37.171875 -39.046875 L 31.703125 -39.046875 C 30.742188 -43.273438 26.898438 -45.390625 20.171875 -45.390625 C 15.460938 -45.390625 12.171875 -43.992188 10.296875 -41.203125 C 9.578125 -40.148438 9.21875 -38.832031 9.21875 -37.25 C 9.21875 -34.21875 10.851562 -31.890625 14.125 -30.265625 C 15.65625 -29.441406 18.921875 -28.382812 23.921875 -27.09375 C 28.910156 -25.789062 32.535156 -24.347656 34.796875 -22.765625 C 37.921875 -20.554688 39.484375 -17.457031 39.484375 -13.46875 C 39.484375 -8.519531 37.535156 -4.773438 33.640625 -2.234375 C 30.378906 -0.117188 26.347656 0.9375 21.546875 0.9375 C 10.691406 0.9375 4.398438 -3.191406 2.671875 -11.453125 L 8.640625 -11.453125 C 9.554688 -6.265625 13.859375 -3.671875 21.546875 -3.671875 C 27.015625 -3.671875 30.832031 -5.1875 33 -8.21875 C 33.863281 -9.414062 34.296875 -11.046875 34.296875 -13.109375 C 34.296875 -15.128906 33.503906 -16.785156 31.921875 -18.078125 C 29.660156 -19.910156 25.359375 -21.59375 19.015625 -23.125 Z M 19.015625 -23.125 "/></g></g></g><g fill="#4360e0" fill-opacity="1"><g transform="translate(1123.296571, 581.902023)"><g><path d="M 31.34375 -16 C 31.34375 -19.164062 30.210938 -21.878906 27.953125 -24.140625 C 25.691406 -26.390625 22.976562 -27.515625 19.8125 -27.515625 C 16.644531 -27.515625 13.929688 -26.390625 11.671875 -24.140625 C 9.410156 -21.878906 8.28125 -19.164062 8.28125 -16 C 8.28125 -12.875 9.410156 -10.179688 11.671875 -7.921875 C 13.929688 -5.660156 16.644531 -4.53125 19.8125 -4.53125 C 22.976562 -4.53125 25.691406 -5.660156 27.953125 -7.921875 C 30.210938 -10.179688 31.34375 -12.875 31.34375 -16 Z M 36.390625 -16 C 36.390625 -11.382812 34.78125 -7.492188 31.5625 -4.328125 C 28.238281 -1.109375 24.320312 0.5 19.8125 0.5 C 15.300781 0.5 11.410156 -1.109375 8.140625 -4.328125 C 4.867188 -7.492188 3.234375 -11.382812 3.234375 -16 C 3.234375 -20.5625 4.867188 -24.472656 8.140625 -27.734375 C 11.359375 -30.953125 15.25 -32.5625 19.8125 -32.5625 C 24.375 -32.5625 28.289062 -30.953125 31.5625 -27.734375 C 34.78125 -24.472656 36.390625 -20.5625 36.390625 -16 Z M 36.390625 -16 "/></g></g></g><g fill="#4360e0" fill-opacity="1"><g transform="translate(1162.922333, 581.902023)"><g><path d="M 27.3125 -5.40625 C 24.957031 -1.375 21.425781 0.640625 16.71875 0.640625 C 13.164062 0.640625 10.378906 -0.53125 8.359375 -2.875 C 6.390625 -5.226562 5.40625 -8.234375 5.40625 -11.890625 L 5.40625 -31.703125 L 10.453125 -31.703125 L 10.453125 -11.890625 C 10.453125 -9.828125 10.929688 -8.070312 11.890625 -6.625 C 12.796875 -5.132812 14.332031 -4.390625 16.5 -4.390625 C 20.4375 -4.390625 23.222656 -5.640625 24.859375 -8.140625 C 26.492188 -10.585938 27.3125 -14.019531 27.3125 -18.4375 L 27.3125 -31.703125 L 32.34375 -31.703125 L 32.34375 0 L 27.3125 0 Z M 27.3125 -5.40625 "/></g></g></g><g fill="#4360e0" fill-opacity="1"><g transform="translate(1199.594145, 581.902023)"><g><path d="M 21.6875 -25.140625 C 20.53125 -26.203125 19.28125 -26.734375 17.9375 -26.734375 C 16.644531 -26.734375 15.539062 -26.375 14.625 -25.65625 C 13.664062 -24.882812 12.875 -23.96875 12.25 -22.90625 C 11.050781 -20.789062 10.453125 -18.4375 10.453125 -15.84375 L 10.453125 0 L 5.40625 0 L 5.40625 -31.703125 L 10.453125 -31.703125 L 10.453125 -25.140625 L 10.65625 -26.4375 C 12.34375 -30.375 14.960938 -32.34375 18.515625 -32.34375 C 19.617188 -32.34375 20.675781 -32.128906 21.6875 -31.703125 Z M 21.6875 -25.140625 "/></g></g></g><g fill="#4360e0" fill-opacity="1"><g transform="translate(1222.000714, 581.902023)"><g><path d="M 35.015625 -20.3125 L 29.546875 -20.3125 C 28.679688 -22.332031 27.332031 -23.96875 25.5 -25.21875 C 23.675781 -26.46875 21.828125 -27.09375 19.953125 -27.09375 C 18.078125 -27.09375 16.46875 -26.800781 15.125 -26.21875 C 13.78125 -25.59375 12.628906 -24.78125 11.671875 -23.78125 C 9.503906 -21.519531 8.421875 -18.875 8.421875 -15.84375 C 8.421875 -12.769531 9.503906 -10.128906 11.671875 -7.921875 C 13.785156 -5.660156 16.378906 -4.53125 19.453125 -4.53125 C 21.472656 -4.53125 23.347656 -5.0625 25.078125 -6.125 C 26.753906 -7.175781 28.070312 -8.59375 29.03125 -10.375 L 34.71875 -10.375 C 32.945312 -5.28125 29.515625 -1.867188 24.421875 -0.140625 C 22.835938 0.429688 21.035156 0.71875 19.015625 0.71875 C 17.003906 0.71875 15.015625 0.265625 13.046875 -0.640625 C 11.078125 -1.503906 9.367188 -2.707031 7.921875 -4.25 C 4.796875 -7.519531 3.234375 -11.382812 3.234375 -15.84375 C 3.234375 -20.363281 4.796875 -24.234375 7.921875 -27.453125 C 11.097656 -30.710938 14.941406 -32.34375 19.453125 -32.34375 C 23.097656 -32.34375 26.390625 -31.21875 29.328125 -28.96875 C 32.109375 -26.800781 34.003906 -23.914062 35.015625 -20.3125 Z M 35.015625 -20.3125 "/></g></g></g><g fill="#4360e0" fill-opacity="1"><g transform="translate(1259.537104, 581.902023)"><g><path d="M 36.390625 -16.578125 L 36.390625 -13.90625 L 8.5 -13.90625 C 8.976562 -11.164062 10.300781 -8.929688 12.46875 -7.203125 C 14.675781 -5.421875 17.125 -4.53125 19.8125 -4.53125 C 21.632812 -4.53125 23.390625 -4.960938 25.078125 -5.828125 C 26.703125 -6.648438 28.066406 -7.804688 29.171875 -9.296875 L 34.9375 -9.296875 C 33.59375 -6.265625 31.578125 -3.882812 28.890625 -2.15625 C 26.148438 -0.382812 23.390625 0.5 20.609375 0.5 C 17.773438 0.5 15.375 0.0664062 13.40625 -0.796875 C 11.382812 -1.660156 9.628906 -2.835938 8.140625 -4.328125 C 4.867188 -7.492188 3.234375 -11.382812 3.234375 -16 C 3.234375 -20.5625 4.867188 -24.472656 8.140625 -27.734375 C 11.359375 -30.953125 15.25 -32.5625 19.8125 -32.5625 C 24.226562 -32.5625 28.09375 -31 31.40625 -27.875 C 34.726562 -24.707031 36.390625 -20.941406 36.390625 -16.578125 Z M 31.046875 -18.234375 C 30.472656 -20.921875 29.128906 -23.148438 27.015625 -24.921875 C 24.898438 -26.648438 22.5 -27.515625 19.8125 -27.515625 C 15.675781 -27.515625 12.4375 -25.664062 10.09375 -21.96875 C 9.363281 -20.820312 8.859375 -19.578125 8.578125 -18.234375 Z M 31.046875 -18.234375 "/></g></g></g></svg>

